<?xml version="1.0" encoding="UTF-8"?>
<svg id="Layer_1" data-name="Layer 1" xmlns="http://www.w3.org/2000/svg" version="1.1" viewBox="0 0 65 65">
  <defs>
    <style>
      .cls-1 {
        fill: #e22829;
        stroke-width: 0px;
      }
    </style>
  </defs>
  <path class="cls-1" d="M32.6,18.8c5.2,0,9.4-4.2,9.4-9.4S37.8,0,32.6,0s-9.4,4.2-9.4,9.4,4.2,9.4,9.4,9.4h0ZM54.8,15.6c-2.4,1.7-3.2,1.7-5.7,0-2-1.4-2.9-1.7-5.2-.7-.6.2-1,1-.7,1.6h0c.3.7,1,1,1.7.7,1.4-.6,1.6-.3,2.8.5.9.7,1.9,1.2,2.9,1.5v4.7c0,.7.6,1.3,1.3,1.3s1.3-.6,1.3-1.3v-4.7c1.1-.3,2.1-.8,2.9-1.5,3.3-2.2,6.2,1.6,6.2,4.5v6.9c0,1.4-.9,2.7-2.3,3.1l-1,.4v-8.6c0-.7-.7-1.2-1.4-1.2-.6,0-1.1.6-1.2,1.2v21.9c0,.6-.5,1-1,1,0,0,0,0,0,0h-6.9c-.7,0-1.3.6-1.3,1.3,0,0,0,0,0,0,0,.7.6,1.3,1.3,1.2h6.9c2,0,3.6-1.6,3.6-3.5v-10.6l1.8-.7c2.4-.8,4-3,4-5.5v-6.9c0-4.9-5.1-10-10.2-6.6ZM52,14.8c4.1,0,7.4-3.3,7.4-7.4C59.4,3.3,56.1,0,52,0c-4.1,0-7.4,3.3-7.4,7.4,0,0,0,0,0,0,0,4.1,3.3,7.4,7.4,7.4ZM52,2.6c2.6,0,4.8,2.1,4.8,4.8s-2.1,4.8-4.8,4.8c-2.2,0-4.1-1.5-4.6-3.6,2.5.4,5-.5,6.6-2.4.4-.6.3-1.4-.3-1.8-.5-.4-1.2-.3-1.7.1-1.1,1.3-2.9,1.9-4.6,1.5.6-2,2.5-3.4,4.6-3.4ZM16.5,46.9h-6.9c-.6,0-1.1-.4-1.1-.9,0,0,0,0,0,0v-21.9c0-.7-.7-1.2-1.4-1.2-.6,0-1.1.6-1.2,1.2v8.6l-1-.4c-1.4-.4-2.3-1.7-2.3-3.1v-6.9c0-2.9,2.9-6.6,6.2-4.5.9.7,1.9,1.2,2.9,1.5v4.7c0,.7.6,1.3,1.3,1.3.7,0,1.3-.6,1.3-1.3v-4.7c2.5-.6,3.5-2.9,5.8-2.1.7.3,1.4,0,1.7-.7.2-.6,0-1.4-.7-1.6,0,0,0,0,0,0-4.4-1.8-5,2-7.9,2-1-.1-2-.5-2.8-1.2-5.2-3.4-10.3,1.7-10.3,6.6v6.9c0,2.5,1.6,4.8,4.1,5.5l1.8.7v10.6c0,2,1.7,3.6,3.7,3.5,0,0,0,0,0,0h6.9c.7,0,1.2-.7,1.2-1.4,0-.6-.6-1.1-1.2-1.2ZM13,14.8c4.1,0,7.4-3.4,7.3-7.4S17,0,12.9,0c-4.1,0-7.3,3.3-7.3,7.4,0,4.1,3.3,7.4,7.4,7.4,0,0,0,0,0,0ZM13,2.6c2.6,0,4.8,2.1,4.8,4.8s-2.1,4.8-4.8,4.8c-2.2,0-4.1-1.5-4.7-3.6,2.5.4,5.1-.5,6.7-2.4.4-.6.3-1.4-.3-1.8-.5-.4-1.2-.3-1.7.1-1.2,1.3-3,1.9-4.7,1.5.7-2,2.5-3.4,4.6-3.4h0ZM49.4,29.1c0-6.1-6.4-13-12.8-8.4-1.2.9-2.5,1.8-4,1.8s-2.8-.9-4.1-1.8c-6.5-4.5-12.9,2.2-12.9,8.4v9.2c0,3.2,2.1,6,5.2,6.9l2.7,1v14.4c0,2.4,2,4.3,4.4,4.2,0,0,0,0,0,0h9.2c2.4,0,4.3-1.8,4.4-4.2v-14.4l2.7-1c3.1-.9,5.2-3.7,5.2-6.9v-9.2ZM46.8,38.4c0,2.1-1.4,3.9-3.5,4.5l-1.8.7v-12c0-.7-.7-1.2-1.4-1.2-.6,0-1.1.6-1.2,1.2v29.2c0,1-.9,1.7-1.8,1.6h-9.2c-1,0-1.8-.6-1.9-1.6v-29.2c0-.7-.7-1.2-1.4-1.2-.6,0-1.1.6-1.2,1.2v12l-1.8-.7c-2-.6-3.4-2.4-3.4-4.5v-9.2c0-4,4.1-9.7,8.8-6.3,1.2,1,2.7,1.7,4.2,2.1v13.5c0,.7.7,1.2,1.4,1.2.6,0,1.1-.6,1.2-1.2v-13.5c1.5-.4,3-1.2,4.2-2.2,4.6-3.2,8.8,2.3,8.8,6.3v9.3ZM32.6,2.6c3.8.1,6.7,3.3,6.6,7-.1,3.6-3,6.5-6.6,6.6-3.4,0-6.2-2.5-6.8-5.8,3.4.8,6.8-.4,9.1-3,1.1-1.3-.8-3-2-1.7-1.7,2-4.5,2.8-7,2.1.8-3.1,3.5-5.2,6.7-5.2Z"/>
</svg>