<?xml version="1.0" encoding="UTF-8"?>
<svg id="Layer_1" data-name="Layer 1" xmlns="http://www.w3.org/2000/svg" version="1.1" viewBox="0 0 65 65">
  <defs>
    <style>
      .cls-1 {
        fill: #e22829;
        fill-rule: evenodd;
        stroke-width: 0px;
      }
    </style>
  </defs>
  <path class="cls-1" d="M22.3,39.8h13.8c.6,0,1-.5,1-1s-.5-1-1-1h-13.8c-.6,0-1,.5-1,1s.5,1,1,1h0Z"/>
  <path class="cls-1" d="M30.9,38.7v25.2c0,.6.5,1,1,1s1-.5,1-1v-25.2c0-.6-.5-1-1-1s-1,.5-1,1Z"/>
  <path class="cls-1" d="M9,0C5,0,1.7,3.2,1.7,7.2s3.2,7.2,7.2,7.2,7.2-3.2,7.2-7.2S12.9,0,9,0ZM9,2.1c2.9,0,5.2,2.3,5.2,5.2s-2.3,5.2-5.2,5.2-5.2-2.3-5.2-5.2,2.3-5.2,5.2-5.2Z"/>
  <path class="cls-1" d="M56,0C52.1,0,48.8,3.2,48.8,7.2s3.2,7.2,7.2,7.2,7.2-3.2,7.2-7.2S60,0,56,0ZM56,2.1c2.9,0,5.2,2.3,5.2,5.2s-2.3,5.2-5.2,5.2-5.2-2.3-5.2-5.2,2.3-5.2,5.2-5.2Z"/>
  <path class="cls-1" d="M14.6,29.7c.2.3.5.6.9.6h.4c0,0,9.5-3.9,9.5-3.9,1.5-.6,3.1.1,3.7,1.6.6,1.5-.1,3.1-1.6,3.7l-12.5,5c-1.2.5-2.5,0-3.3-.9-.3-.3-.7-.5-1.1-.3-.4.1-.7.5-.7,1v5.2c0,.5.4,1,.9,1l8.3,1c2,.2,3.4,1.9,3.4,3.9v16.5c0,.6.5,1,1,1s1-.5,1-1v-16.5c0-3-2.3-5.6-5.3-5.9l-7.4-.9v-2.1c1.2.5,2.6.6,3.9,0l12.5-5c2.5-1,3.7-3.9,2.7-6.4s-3.8-3.7-6.4-2.7l-8.6,3.5-5-8.1c-.7-1.1-1.8-2-3.2-2.2,0,0,0,0-.1,0-1.4-.3-2.8,0-3.9.9-1.1.8-1.8,2.1-1.9,3.5C1.2,30,0,45.9,0,45.9c0,0,0,0,0,0,0,3,2.3,5.6,5.3,5.9l7.4,1v11.1c0,.6.5,1,1,1s1-.5,1-1v-12c0-.5-.4-1-.9-1l-8.3-1.1c-1.9-.2-3.4-1.9-3.4-3.8,0,0,1.8-23.8,1.8-23.8,0-.8.5-1.6,1.1-2.1.7-.5,1.5-.7,2.3-.5h.1c.8.2,1.4.7,1.8,1.3,1.6,2.5,4.7,7.7,5.3,8.7,0,0,0,0,0,0h0Z"/>
  <path class="cls-1" d="M6.5,31.2l3.3,5.4c1.2,2,3.8,2.9,6,2,.5-.2.8-.8.6-1.3-.2-.5-.8-.8-1.3-.6-1.3.5-2.8,0-3.5-1.2l-3.3-5.4c-.3-.5-.9-.6-1.4-.3-.5.3-.6.9-.3,1.4h0Z"/>
  <path class="cls-1" d="M48.1,29.6l-9.9,1.4c-2.7.4-4.5,2.9-4.2,5.5.4,2.7,2.9,4.5,5.5,4.2l12.2-1.7c.5,0,.9-.2,1.4-.4v2.1l-7.4.9c-3,.3-5.3,2.9-5.3,5.9v16.5c0,.6.5,1,1,1s1-.5,1-1v-16.5c0-2,1.5-3.6,3.4-3.9l8.3-1h0c.5,0,.9-.5.9-1v-5.2c0-.4-.3-.8-.7-1-.4-.1-.9,0-1.1.3-.4.6-1.1,1-1.9,1.1l-12.2,1.7c-1.6.2-3-.9-3.2-2.4-.2-1.6.9-3,2.4-3.2l10.4-1.5h-.1s.9-.5.9-.5l5.6-9.1c.7-1.2,2-1.8,3.4-1.7,0,0,0,0,0,0,1.8.1,3.3,1.6,3.4,3.5l1,22.3c0,2-1.5,3.6-3.4,3.8l-8.1.9c-.5,0-.9.5-.9,1l-.2,12.2c0,.6.4,1,1,1,.6,0,1-.4,1-1v-11.3c.1,0,7.4-.8,7.4-.8,3-.3,5.3-2.9,5.3-5.9s0,0,0,0c0,0-.7-14.9-1-22.3-.1-2.9-2.4-5.2-5.2-5.4,0,0,0,0,0,0-2.1-.2-4.2.9-5.3,2.7l-5.3,8.7Z"/>
  <path class="cls-1" d="M42.2,3.1c0-.8-.3-1.6-.9-2.2-.6-.6-1.4-.9-2.2-.9h-14.3c-1.7,0-3.1,1.4-3.1,3.1v13c0,.7.4,1.3,1,1.6.6.3,1.3.2,1.8-.3,1-.9,2.4-2.1,3.2-2.7.2-.2.4-.3.7-.3h10.7c.8,0,1.6-.3,2.2-.9.6-.6.9-1.4.9-2.2V3.1h0ZM23.8,15.4V3.1c0-.6.5-1,1-1h14.3c.3,0,.5.1.7.3.2.2.3.5.3.7v8.3c0,.3-.1.5-.3.7-.2.2-.5.3-.7.3h-10.7c-.7,0-1.5.3-2,.8l-2.6,2.3Z"/>
  <path class="cls-1" d="M27.4,6.4h9.3c.6,0,1-.5,1-1s-.5-1-1-1h-9.3c-.6,0-1,.5-1,1s.5,1,1,1h0Z"/>
  <path class="cls-1" d="M27.4,10.1h4.6c.6,0,1-.5,1-1s-.5-1-1-1h-4.6c-.6,0-1,.5-1,1,0,.6.5,1,1,1Z"/>
  <path class="cls-1" d="M48.7,39.4l3.1-.4c1.4-.2,2.7-1,3.5-2.3l3.3-5.4c.3-.5.1-1.1-.3-1.4-.5-.3-1.1-.1-1.4.3l-3.3,5.4c-.4.7-1.2,1.2-2,1.3l-3.1.4c-.6,0-1,.6-.9,1.2,0,.6.6,1,1.2.9h0Z"/>
</svg>