<?xml version="1.0" encoding="UTF-8"?>
<svg id="Layer_1" data-name="Layer 1" xmlns="http://www.w3.org/2000/svg" version="1.1" viewBox="0 0 65 65">
  <defs>
    <style>
      .cls-1 {
        fill: #e22829;
        stroke-width: 0px;
      }
    </style>
  </defs>
  <path class="cls-1" d="M64.9,32.5c-.2-.9-.8-1.7-1.6-2.2l-24.6-15.1.3-.5.7.4c.4.3.9.4,1.4.4.9,0,1.8-.5,2.3-1.3l2.1-3.4c.8-1.3.4-3-.9-3.8L33.9.4c-.6-.4-1.4-.5-2.1-.3-.7.2-1.3.6-1.7,1.2l-2.1,3.4c-.4.6-.5,1.4-.3,2.1.2.7.6,1.3,1.2,1.7h0s-4.4,7.2-4.4,7.2h0s0,0,0,0c-1.3-.8-3-.4-3.8.9l-2.1,3.4c-.8,1.3-.4,3,.9,3.8l9.3,5.7h0c-3.7,0-6.8,2.8-7.3,6.4h-8.3v-2.4c0-.5-.4-.9-.9-.9H.9c-.5,0-.9.4-.9.9v24.4c0,.5.4.9.9.9h11.6c.5,0,.9-.4.9-.9v-1.8c1.4.7,2.6,1.4,3.8,2,8.7,4.6,13.1,6.9,17.4,6.9s8.1-2,15.8-5.8c1.9-.9,4-2,6.5-3.2,2.8-1.4,4-4.7,2.6-7.5-1.4-2.8-4.7-4-7.5-2.6l-11.7,5.7c.2-1.9-.6-3.8-2.2-5-1.1-.8-2.2-1.7-3.3-2.5h11.5c1.3,0,2.4-1.1,2.4-2.4v-3.3c0-1.3-1.1-2.4-2.4-2.4h-2.8c-.4-3.6-3.5-6.4-7.3-6.4h-2.1s0,0,0,0l2.1-3.4c.4-.6.5-1.4.3-2.1-.2-.7-.6-1.3-1.2-1.7l-.7-.4.3-.5,24.6,15.1c.6.4,1.2.5,1.9.5,1.2,0,2.4-.6,3.1-1.7.5-.8.6-1.8.4-2.7h0ZM11.6,57H1.8v-22.6h9.8v22.6ZM38.1,52.5c-.1.3-.3.6-.5.9-.6.8-1.5,1.3-2.5,1.5-1,.1-2-.1-2.8-.8l-9.6-7.4-1.1,1.4,9.6,7.4c1,.8,2.2,1.2,3.4,1.2s.5,0,.7,0c1.5-.2,2.8-.9,3.7-2.1.1-.2.3-.4.4-.6l13.3-6.4c1.9-.9,4.2-.1,5.1,1.8.9,1.9.1,4.2-1.8,5.1-2.4,1.2-4.6,2.2-6.5,3.2-7.7,3.8-11.5,5.7-15.3,5.6-3.8-.1-8-2.3-16.2-6.6-1.4-.7-3-1.6-4.6-2.4v-16.4h10.1c2.2,1.7,4.3,3.3,6.5,5,2.3,1.8,4.6,3.6,6.9,5.3,1.4,1.1,1.8,2.9,1.2,4.5h0ZM46.9,38.3v3.3c0,.4-.3.7-.7.7h-13.8c-.5-.4-.9-.7-1.4-1.1-1.6-1.2-3.1-2.4-4.7-3.6h19.9c.4,0,.7.3.7.7h0ZM41.7,35.9h-18.3c.4-2.6,2.7-4.7,5.5-4.7h7.3c2.8,0,5,2,5.5,4.7ZM29.6,5.7l2.1-3.4c.1-.2.3-.4.6-.4,0,0,.2,0,.2,0,.2,0,.3,0,.5.1,0,0,0,0,0,0l10.7,6.5c.5.3.6.9.3,1.3l-2.1,3.4c-.3.5-.9.6-1.3.3l-10.7-6.5c-.2-.1-.4-.3-.4-.6,0-.3,0-.5.1-.7h0ZM34.7,25.1l-2.1,3.4c-.1.2-.3.4-.6.4-.3,0-.5,0-.7-.1l-10.7-6.5c-.5-.3-.6-.9-.3-1.3l2.1-3.4c.1-.2.3-.4.6-.4,0,0,.2,0,.2,0,.2,0,.3,0,.5.1l10.7,6.5c.5.3.6.9.3,1.3ZM26.2,16.7l4.4-7.2,6.9,4.2-4.4,7.2-6.9-4.2ZM63,34.3c-.5.9-1.6,1.1-2.5.6l-24.6-15.1,1.9-3.1,24.6,15.1c.4.3.7.6.8,1.1.1.5,0,1-.2,1.4h0Z"/>
</svg>