<?xml version="1.0" encoding="UTF-8"?>
<svg id="Layer_1" data-name="Layer 1" xmlns="http://www.w3.org/2000/svg" version="1.1" viewBox="0 0 65 65">
  <defs>
    <style>
      .cls-1 {
        fill: #e22829;
        stroke-width: 0px;
      }
    </style>
  </defs>
  <path class="cls-1" d="M14.2,54.6h-7.3c-.5,0-1,.4-1,1s.4,1,1,1h7.3c.5,0,1-.4,1-1s-.4-1-1-1Z"/>
  <path class="cls-1" d="M14.2,48h-7.3c-.5,0-1,.4-1,1s.4,1,1,1h7.3c.5,0,1-.4,1-1s-.4-1-1-1Z"/>
  <path class="cls-1" d="M14.2,41.5h-7.3c-.5,0-1,.4-1,1s.4,1,1,1h7.3c.5,0,1-.4,1-1s-.4-1-1-1Z"/>
  <path class="cls-1" d="M63.6,14.2h-5.5c.9-1.4,1.4-3.1,1.4-4.9,0-5.1-4.2-9.3-9.3-9.3s-1.8.1-2.7.4c-.5.2-.8.7-.6,1.2.2.5.7.8,1.2.6.7-.2,1.4-.3,2.2-.3,4.1,0,7.4,3.3,7.4,7.4s-3.3,7.4-7.4,7.4-7.4-3.3-7.4-7.4.7-3.6,1.9-4.9c.4-.4.3-1,0-1.3-.4-.4-1-.3-1.3,0-1.5,1.7-2.4,3.9-2.4,6.2s.5,3.5,1.4,4.9h-2.5c-1.1-1-2.6-1.7-4.3-1.7h-4.2c-.4,0-.7-.1-1-.3l-3.1-2.4c-.6-.5-1.4-.5-2.1-.2-.5.3-.9.7-1,1.3l-1.4-1.1c-.6-.5-1.4-.5-2.1-.2-.7.3-1.1,1-1.1,1.8v8.8c0,1,.2,2,.7,3-1,.6-1.8,1.7-1.8,2.9,0,1.9,1.6,3.4,3.6,3.4h1c0,2.6,1.5,5,3.6,6.2v6.1h-4.7c-.3,0-.7,0-1,.1v-4.5c0-.8-.7-1.5-1.5-1.5h-3.1v-4.3c0-.9-.7-1.6-1.6-1.6h-3.3v-3.1c0-.5-.4-1-1-1s-1,.4-1,1v3.1h-3.3c-.9,0-1.6.7-1.6,1.6v4.3H1.5c-.8,0-1.5.7-1.5,1.5v26.1c0,.8.7,1.5,1.5,1.5h36.2c.9,0,1.6-.7,1.6-1.6v-1.1c0-.5-.4-1-1-1s-1,.4-1,1v.8h-13.2v-12.3c0-.5-.4-1-1-1s-1,.4-1,1v12.3h-2.7v-16.9c0-1.4,1.1-2.5,2.5-2.5h4.9c.1.3.3.6.6.8l.9.7-1.4,7.6c0,.5,0,1,.4,1.3l2.2,2.3c.3.3.7.5,1.1.5s.8-.2,1.1-.5l2.2-2.3c.3-.4.5-.8.4-1.3l-1.4-7.6.9-.7c.3-.2.5-.5.6-.8h3c.2,0,.4,0,.5.2l6.1,5.6-.2.6c-.1.5.1,1,.6,1.2,0,0,.2,0,.3,0,.4,0,.8-.3.9-.7l.4-1.2s0,0,0,0l1.6-5.4,2.6.8-2.3,8c-.2.7-.7,1.2-1.4,1.3s-1.3,0-1.8-.4l-5.9-5.4c-.3-.3-.7-.3-1-.2-.3.2-.6.5-.6.9v5.9c0,.5.4,1,1,1s1-.4,1-1v-3.7l4.3,3.9c.7.7,1.7,1,2.6,1s.7,0,1-.1c1.3-.4,2.3-1.3,2.7-2.6l2.6-8.9s0,0,0,0c0,0,.9-2.9.9-3,0,0,0,0,0,0,0-.2,0-.4,0-.6h10.2c.8,0,1.4-.6,1.4-1.4V15.6c0-.8-.6-1.4-1.4-1.4h0ZM6.5,31.9h8v4H6.5v-4ZM1.9,63.1v-25.3c15,0,15.9,0,17.2,0v5.1c-.9.8-1.5,2-1.5,3.3v16.9H1.9h0ZM21.5,11.4s0,0,0,0c0,0,0,0,0,0l2.6,2c.3.3.8.3,1.2.1.4-.2.6-.6.6-1v-1.1s0,0,0,0c0,0,0,0,0,0l3.1,2.4c.6.5,1.4.7,2.2.7h4.2c2.4,0,4.4,2,4.4,4.4v3c0,.3,0,.6-.1.9-.2,0-.3,0-.5,0h-1c-.3-2.7-2.5-4.8-5.3-4.8h-8.6c-.8,0-1.4.6-1.4,1.4v3.4h-.9c-.4-.8-.7-1.6-.7-2.5v-8.8ZM38.4,24.6h1c.9,0,1.7.7,1.7,1.5s-.8,1.5-1.7,1.5h-1v-3ZM20.5,26.1c0-.8.8-1.5,1.7-1.5h1v3h-1c-.9,0-1.7-.7-1.7-1.5h0ZM25.1,29.4v-9.6h8.1c1.9,0,3.4,1.5,3.4,3.4v6.2c0,3-2.4,5.4-5.4,5.4h-.7c-3,0-5.4-2.4-5.4-5.4ZM30.4,36.7h.7c.6,0,1.2,0,1.8-.2v6.4s0,0,0,.1l-2,1.5c0,0-.1,0-.2,0l-2-1.5s0,0,0-.1v-6.4c.6.1,1.1.2,1.8.2h0ZM30.8,54.8l-1.8-1.8,1.2-6.5c.2,0,.4,0,.6,0s.4,0,.6,0l1.2,6.5-1.8,1.8ZM39.5,42.5c-.5-.5-1.1-.7-1.8-.7h-2.9v-6.1c.3-.1.5-.3.7-.5v4.3c0,.8.6,1.4,1.4,1.4h9.9l-.5,1.8s0,0,0,0l-.7,2.3s0,0,0,0l-.7,2.5-5.4-4.9ZM48.3,42.3l.6-1.9c.2-.7,1-1.1,1.7-.9.7.2,1.1,1,.9,1.7l-.6,1.9-2.6-.8ZM63.1,38.9h-10.2c-.4-.7-1.1-1.1-1.8-1.3-.2,0-.4,0-.6-.1-1.2-.1-2.4.4-3,1.4h-10v-5.9c.6-1.1,1-2.3,1-3.6h1c2,0,3.6-1.5,3.6-3.4s-.5-2-1.3-2.6c.2-.5.3-1.1.3-1.7v-3c0-1-.2-1.9-.6-2.7h2.7c1.7,1.5,3.8,2.4,6.3,2.4s4.6-.9,6.3-2.4h6.6v22.8Z"/>
  <path class="cls-1" d="M46.4,30.5c-.5,0-1,.4-1,1v1.4c0,.5.4,1,1,1s1-.4,1-1v-1.4c0-.5-.4-1-1-1h0Z"/>
  <path class="cls-1" d="M50.7,28.2c-.5,0-1,.4-1,1v3.6c0,.5.4,1,1,1s1-.4,1-1v-3.6c0-.5-.4-1-1-1h0Z"/>
  <path class="cls-1" d="M54.9,25.9c-.5,0-1,.4-1,1v6c0,.5.4,1,1,1s1-.4,1-1v-6c0-.5-.4-1-1-1h0Z"/>
  <path class="cls-1" d="M54.5,21.4l-8.5,4.6c-.5.2-.6.8-.4,1.3.2.3.5.5.8.5s.3,0,.5-.1l8.5-4.6c.5-.2.6-.8.4-1.3-.2-.5-.8-.6-1.3-.4Z"/>
  <path class="cls-1" d="M30.9,32.5c.8,0,1.6-.3,2.2-.9.4-.4.4-1,0-1.3-.4-.4-1-.4-1.3,0-.2.2-.6.4-.9.4h-.3c-.3,0-.6-.1-.9-.4-.4-.4-1-.4-1.3,0-.4.4-.4,1,0,1.3.6.6,1.4.9,2.2.9h.3Z"/>
  <path class="cls-1" d="M48.4,13.9c.3,0,.5,0,.8-.2l5.1-3.2c.4-.3.7-.7.7-1.3s-.3-1-.7-1.3l-5.1-3.2c-.5-.3-1-.3-1.5,0-.5.3-.8.8-.8,1.3v6.3c0,.5.3,1,.8,1.3.2.1.5.2.7.2ZM48.8,6.9l3.9,2.4-3.9,2.4v-4.8Z"/>
</svg>