<?xml version="1.0" encoding="UTF-8"?>
<svg id="Layer_1" data-name="Layer 1" xmlns="http://www.w3.org/2000/svg" version="1.1" viewBox="0 0 65 65">
  <defs>
    <style>
      .cls-1, .cls-2 {
        fill: #e22829;
        stroke-width: 0px;
      }

      .cls-2 {
        fill-rule: evenodd;
      }
    </style>
  </defs>
  <g id="Page-1">
    <g id="_025---AI" data-name="025---AI">
      <path id="Shape" class="cls-1" d="M0,47.7c0,2.4,2,4.3,4.5,4.3.6,0,1.1-.1,1.6-.3,2.6,2,6.4,3,11,3s1.4,0,2.1,0c3.3,6.4,7.9,10.4,13.2,10.4s10-4,13.3-10.4c.7,0,1.4,0,2.1,0,4.6,0,8.3-1,11-3,.5.2,1.1.3,1.6.3,2,0,3.7-1.3,4.3-3.1.6-1.8-.2-3.8-1.8-4.9.2-3.5-1.2-7.5-4.1-11.6,2.8-4.1,4.2-8.1,4.1-11.6,1.9-1.2,2.6-3.6,1.5-5.6s-3.5-2.9-5.6-2c-3-2.3-7.5-3.3-13.1-2.9-3.3-6.4-7.9-10.4-13.3-10.4s-10,4-13.3,10.4c-5.6-.3-10.1.7-13.1,2.9-2.1-.8-4.6,0-5.6,2-1.1,2-.4,4.4,1.5,5.6-.2,3.5,1.2,7.4,4.1,11.6-2.8,4.1-4.2,8.1-4.1,11.6C.8,44.9,0,46.2,0,47.7h0ZM2.2,47.7c0-1.2,1-2.2,2.2-2.2s2.2,1,2.2,2.2-1,2.2-2.2,2.2-1.2-.2-1.6-.6-.7-1-.7-1.5ZM20.6,12.7c3,.3,5.9,1,8.8,1.9-2,.9-4,1.8-5.9,2.9-1.9,1.1-3.8,2.2-5.5,3.5.6-2.8,1.5-5.6,2.6-8.3ZM47,21c-1.8-1.3-3.6-2.4-5.5-3.5-1.9-1.1-3.9-2-5.9-2.9,2.8-.9,5.8-1.6,8.8-1.9,1.2,2.7,2.1,5.4,2.6,8.3ZM44.4,52.3c-3-.3-5.9-1-8.8-1.9,2-.9,4-1.8,5.9-2.9,1.9-1.1,3.8-2.2,5.5-3.5-.6,2.8-1.5,5.6-2.6,8.3ZM40.3,19.4c2.5,1.4,4.9,3,7.2,4.7.4,2.8.6,5.6.6,8.4,0,2.8-.2,5.6-.6,8.4-2.3,1.8-4.7,3.3-7.2,4.7-2.5,1.4-5.1,2.6-7.8,3.7-2.7-1-5.3-2.3-7.8-3.7-2.5-1.4-4.9-3-7.2-4.7-.8-5.6-.8-11.2,0-16.8,2.3-1.8,4.7-3.3,7.2-4.7,2.5-1.4,5.1-2.6,7.8-3.7,2.7,1,5.3,2.3,7.8,3.7h0ZM50.1,26.2c2.2,1.9,4.3,4,6.1,6.3-1.8,2.3-3.8,4.4-6,6.3.2-2.1.3-4.2.3-6.3,0-2.1-.1-4.2-.3-6.3h0ZM14.9,38.9c-2.2-1.9-4.3-4-6.1-6.3,1.8-2.3,3.8-4.4,6-6.3-.4,4.2-.4,8.5,0,12.7h0ZM23.5,47.5c1.9,1.1,3.9,2,5.9,2.9-2.8.9-5.8,1.6-8.8,1.9-1.2-2.7-2.1-5.4-2.6-8.3,1.8,1.3,3.6,2.4,5.5,3.5h0ZM32.5,62.9c-4.2,0-8-3.2-10.9-8.5,3.7-.5,7.4-1.4,10.9-2.7,3.5,1.3,7.1,2.2,10.9,2.7-2.8,5.2-6.6,8.5-10.9,8.5ZM60.5,49.9c-1.2,0-2.2-1-2.2-2.2s1-2.2,2.2-2.2,2.2,1,2.2,2.2-1,2.2-2.2,2.2ZM60.7,43.4c0,0-.2,0-.2,0-2.5,0-4.5,1.9-4.5,4.3,0,1,.3,1.9,1,2.7-2.4,1.6-6,2.3-10.3,2.1,1.4-3.4,2.4-6.9,2.9-10.4,2.9-2.3,5.5-4.8,7.8-7.7,1.9,2.7,3,5.8,3.3,9ZM62.7,17.3c0,1.2-1,2.2-2.2,2.2s-2.2-1-2.2-2.2,1-2.2,2.2-2.2,2.2,1,2.2,2.2ZM57,14.7c-.6.8-1,1.7-1,2.7,0,2.4,2,4.3,4.5,4.3s.2,0,.2,0c-.2,3.2-1.4,6.3-3.3,9-2.3-2.8-4.9-5.4-7.8-7.7-.6-3.6-1.5-7.1-2.9-10.4,4.3-.2,7.8.6,10.3,2.1h0ZM32.5,2.2c4.2,0,8,3.2,10.9,8.5-3.7.5-7.3,1.4-10.8,2.7-3.5-1.3-7.1-2.2-10.9-2.7,2.8-5.2,6.6-8.5,10.9-8.5h0ZM4.5,15.2c1.2,0,2.2,1,2.2,2.2s-1,2.2-2.2,2.2-2.2-1-2.2-2.2,1-2.2,2.2-2.2ZM4.3,21.7c0,0,.2,0,.2,0,2.5,0,4.5-1.9,4.5-4.3,0-1-.3-1.9-1-2.7,2.4-1.6,6-2.3,10.3-2.1-1.4,3.4-2.4,6.9-2.9,10.4-2.9,2.3-5.5,4.8-7.8,7.7-1.9-2.7-3-5.8-3.3-9ZM7.5,34.4c2.3,2.8,4.9,5.4,7.8,7.7.6,3.6,1.5,7.1,2.9,10.4-4.3.2-7.8-.6-10.3-2.1.6-.8,1-1.7,1-2.7,0-2.4-2-4.3-4.5-4.3s-.2,0-.2,0c.2-3.2,1.4-6.3,3.3-9Z"/>
    </g>
  </g>
  <path id="Shape-2" data-name="Shape" class="cls-1" d="M20.9,40.3c.3.1.6.1.9,0s.5-.3.6-.6l1.6-3.8h6l1.6,3.8c.2.6.9.8,1.5.6.6-.2.8-.9.6-1.5l-5.6-13.4c-.2-.4-.6-.7-1-.7s-.9.3-1,.7l-5.6,13.4c-.1.3-.1.6,0,.9s.3.5.6.6h0ZM26.9,28.7l2.1,4.9h-4.1l2.1-4.9Z"/>
  <path id="Path" class="cls-2" d="M35.9,38.1c-.6,0-1.1.5-1.1,1.1s.5,1.1,1.1,1.1h6.7c.6,0,1.1-.5,1.1-1.1s-.5-1.1-1.1-1.1h-2.2v-11.2h2.2c.6,0,1.1-.5,1.1-1.1s-.5-1.1-1.1-1.1h-6.7c-.6,0-1.1.5-1.1,1.1s.5,1.1,1.1,1.1h2.2v11.2h-2.2Z"/>
</svg>