<?xml version="1.0" encoding="UTF-8"?>
<svg id="Layer_1" data-name="Layer 1" xmlns="http://www.w3.org/2000/svg" version="1.1" viewBox="0 0 65 65">
  <defs>
    <style>
      .cls-1 {
        fill: #e22829;
        stroke-width: 0px;
      }
    </style>
  </defs>
  <path class="cls-1" d="M33.9,22.2h-4c-.6,0-1,.5-1,1s.5,1,1,1h4c.6,0,1-.5,1-1s-.5-1-1-1ZM44.2,5h-9.5c-.6,0-1,.5-1,1s.5,1,1,1h9.5c.6,0,1-.5,1-1s-.5-1-1-1ZM44.8,16.5h-12.1c-.6,0-1,.5-1,1s.5,1,1,1h12.1c.6,0,1-.5,1-1s-.5-1-1-1ZM53.1,16.5h-3.8c-.6,0-1,.5-1,1s.5,1,1,1h3.8c.6,0,1-.5,1-1s-.5-1-1-1ZM53.1,10.7h-18.9c-.6,0-1,.5-1,1s.5,1.1,1,1.1h18.9c.6,0,1-.5,1-1.1s-.5-1-1-1ZM53.2,22.2h-14.7c-.6,0-1,.5-1,1s.5,1,1,1h14.7c.6,0,1-.5,1-1s-.5-1-1-1ZM53.2,5h-4.1c-.6,0-1.1.5-1.1,1s.5,1,1.1,1h4.1c.6,0,1-.5,1-1s-.5-1-1-1ZM49,7.1h4.1c.6,0,1-.5,1-1s-.5-1-1-1h-4.1c-.6,0-1.1.5-1.1,1s.5,1,1.1,1ZM53.2,22.2h-14.7c-.6,0-1,.5-1,1s.5,1,1,1h14.7c.6,0,1-.5,1-1s-.5-1-1-1ZM34.1,12.8h18.9c.6,0,1-.5,1-1.1s-.5-1-1-1h-18.9c-.6,0-1,.5-1,1s.5,1.1,1,1.1ZM53.1,16.5h-3.8c-.6,0-1,.5-1,1s.5,1,1,1h3.8c.6,0,1-.5,1-1s-.5-1-1-1ZM32.7,18.5h12.1c.6,0,1-.5,1-1s-.5-1-1-1h-12.1c-.6,0-1,.5-1,1s.5,1,1,1ZM34.7,7.1h9.5c.6,0,1-.5,1-1s-.5-1-1-1h-9.5c-.6,0-1,.5-1,1s.5,1,1,1ZM33.9,22.2h-4c-.6,0-1,.5-1,1s.5,1,1,1h4c.6,0,1-.5,1-1s-.5-1-1-1ZM58.9,0H23.4c-3.3,0-6.1,2.7-6.1,6.1v8l-3.2,1.7c-.6-1.6-1.8-2.8-3.2-3.7,1.6-1.1,2.6-3,2.6-5,0-3.4-2.8-6.2-6.2-6.2S1.1,3.7,1.1,7.1s1,3.9,2.6,5c-2.2,1.2-3.7,3.6-3.7,6.4v15.7c0,1.4,1.1,2.5,2.5,2.5h9.6c1.4,0,2.5-1.1,2.5-2.5v-10.8l2.7-1.4v1.2c0,3.4,2.7,6.1,6.1,6.1h35.5c3.4,0,6.1-2.7,6.1-6.1V6.1c0-3.4-2.7-6.1-6.1-6.1ZM3.2,7.1c0-2.2,1.8-4.1,4.1-4.1s4.1,1.8,4.1,4.1-1.8,4.1-4.1,4.1-4.1-1.8-4.1-4.1ZM12.5,22.1l-2.6,1.3c-.3.2-.7.2-1.1,0-.4-.1-.6-.3-.8-.7-.1-.3-.2-.6-.1-.9.1-.6-.2-1.1-.8-1.2-.6-.1-1.1.2-1.2.8-.2.8,0,1.6.3,2.3.4.8,1.1,1.4,2,1.7.3.1.7.2,1.1.2.6,0,1.1-.1,1.6-.4l1.6-.8v9.7c0,.2-.2.4-.4.4H2.5c-.2,0-.4-.2-.4-.4v-15.7c0-2.9,2.3-5.2,5.2-5.2s4.6,1.8,5.1,4.2l.3,1.4,6.2-3.2.5-.3c1.2-.6,1.8.5,1.9.6.1.2.6,1.2-.6,1.8l-8.2,4.2ZM62.9,23.2c0,2.2-1.8,4-4,4H23.4c-2.2,0-4-1.8-4-4v-2.3l2.2-1.2c1.6-.8,2.1-2.4,1.8-3.7l6.7-7.9c.4-.4.3-1.1-.1-1.5-.4-.4-1.1-.3-1.5.1l-6.2,7.3c-.8-.7-1.8-1.1-3-.9v-7.1c0-2.2,1.8-4,4-4h35.5c2.2,0,4,1.8,4,4v17.1ZM53.2,5h-4.1c-.6,0-1.1.5-1.1,1s.5,1,1.1,1h4.1c.6,0,1-.5,1-1s-.5-1-1-1ZM53.2,22.2h-14.7c-.6,0-1,.5-1,1s.5,1,1,1h14.7c.6,0,1-.5,1-1s-.5-1-1-1ZM34.1,12.8h18.9c.6,0,1-.5,1-1.1s-.5-1-1-1h-18.9c-.6,0-1,.5-1,1s.5,1.1,1,1.1ZM53.1,16.5h-3.8c-.6,0-1,.5-1,1s.5,1,1,1h3.8c.6,0,1-.5,1-1s-.5-1-1-1ZM32.7,18.5h12.1c.6,0,1-.5,1-1s-.5-1-1-1h-12.1c-.6,0-1,.5-1,1s.5,1,1,1ZM34.7,7.1h9.5c.6,0,1-.5,1-1s-.5-1-1-1h-9.5c-.6,0-1,.5-1,1s.5,1,1,1ZM33.9,22.2h-4c-.6,0-1,.5-1,1s.5,1,1,1h4c.6,0,1-.5,1-1s-.5-1-1-1ZM33.9,22.2h-4c-.6,0-1,.5-1,1s.5,1,1,1h4c.6,0,1-.5,1-1s-.5-1-1-1ZM44.2,5h-9.5c-.6,0-1,.5-1,1s.5,1,1,1h9.5c.6,0,1-.5,1-1s-.5-1-1-1ZM44.8,16.5h-12.1c-.6,0-1,.5-1,1s.5,1,1,1h12.1c.6,0,1-.5,1-1s-.5-1-1-1ZM53.1,16.5h-3.8c-.6,0-1,.5-1,1s.5,1,1,1h3.8c.6,0,1-.5,1-1s-.5-1-1-1ZM53.1,10.7h-18.9c-.6,0-1,.5-1,1s.5,1.1,1,1.1h18.9c.6,0,1-.5,1-1.1s-.5-1-1-1ZM53.2,22.2h-14.7c-.6,0-1,.5-1,1s.5,1,1,1h14.7c.6,0,1-.5,1-1s-.5-1-1-1ZM53.2,5h-4.1c-.6,0-1.1.5-1.1,1s.5,1,1.1,1h4.1c.6,0,1-.5,1-1s-.5-1-1-1ZM44.2,5h-9.5c-.6,0-1,.5-1,1s.5,1,1,1h9.5c.6,0,1-.5,1-1s-.5-1-1-1ZM53.2,5h-4.1c-.6,0-1.1.5-1.1,1s.5,1,1.1,1h4.1c.6,0,1-.5,1-1s-.5-1-1-1ZM53.1,10.7h-18.9c-.6,0-1,.5-1,1s.5,1.1,1,1.1h18.9c.6,0,1-.5,1-1.1s-.5-1-1-1ZM44.8,16.5h-12.1c-.6,0-1,.5-1,1s.5,1,1,1h12.1c.6,0,1-.5,1-1s-.5-1-1-1ZM53.1,16.5h-3.8c-.6,0-1,.5-1,1s.5,1,1,1h3.8c.6,0,1-.5,1-1s-.5-1-1-1ZM53.2,22.2h-14.7c-.6,0-1,.5-1,1s.5,1,1,1h14.7c.6,0,1-.5,1-1s-.5-1-1-1ZM33.9,22.2h-4c-.6,0-1,.5-1,1s.5,1,1,1h4c.6,0,1-.5,1-1s-.5-1-1-1ZM61.8,56.4H3.2c-1.8,0-3.2,1.5-3.2,3.2v3.4c0,1.1.9,1.9,1.9,1.9h61.2c1.1,0,1.9-.9,1.9-1.9v-3.4c0-1.8-1.5-3.2-3.2-3.2ZM62.9,62.9H2.1v-3.2c0-.6.5-1.2,1.2-1.2h58.5c.6,0,1.2.5,1.2,1.2v3.2Z"/>
  <g>
    <path class="cls-1" d="M32.5,48.9c-3.5,0-6.4-2.9-6.4-6.4v-1.1c0-3.5,2.9-6.4,6.4-6.4s6.4,2.9,6.4,6.4v1.1c0,3.5-2.9,6.4-6.4,6.4ZM32.5,37.2c-2.4,0-4.3,1.9-4.3,4.3v1.1c0,2.4,1.9,4.3,4.3,4.3s4.3-1.9,4.3-4.3v-1.1c0-2.4-1.9-4.3-4.3-4.3Z"/>
    <path class="cls-1" d="M44.2,57.2h-2.1v-1.9c0-1.8-1.4-3.2-3.2-3.2h-12.8c-1.8,0-3.2,1.4-3.2,3.2v1.9h-2.1v-1.9c0-2.9,2.4-5.3,5.3-5.3h12.8c2.9,0,5.3,2.4,5.3,5.3v1.9Z"/>
  </g>
</svg>