<?xml version="1.0" encoding="UTF-8"?>
<svg id="Layer_1" data-name="Layer 1" xmlns="http://www.w3.org/2000/svg" version="1.1" viewBox="0 0 65 65">
  <defs>
    <style>
      .cls-1 {
        fill: #e22829;
        stroke-width: 0px;
      }
    </style>
  </defs>
  <path class="cls-1" d="M10.8,42.1c6,0,10.8-4.9,10.8-10.8s-.5-1.2-1.2-1.2h-1.6l-6.3-16.9h5.1c2.1,0,4.2-.9,5.7-2.4,1.5-1.5,3.5-2.4,5.6-2.4v46.9h-4.8c-2.7,0-4.8,2.2-4.8,4.8v2.4h-2.4c-.7,0-1.2.5-1.2,1.2s.5,1.2,1.2,1.2h31.3c1.6,0,1.6-2.4,0-2.4h-2.4v-2.4c0-2.7-2.2-4.8-4.8-4.8s-1.2.5-1.2,1.2.5,1.2,1.2,1.2c1.3,0,2.4,1.1,2.4,2.4v2.4h-21.7v-2.4c0-1.3,1.1-2.4,2.4-2.4h10.8c.7,0,1.2-.5,1.2-1.2V8.4c2.1,0,4.1.9,5.6,2.4,1.5,1.5,3.6,2.4,5.7,2.4h5.1l-6.3,16.9h-1.6c-.7,0-1.2.5-1.2,1.2,0,6,4.9,10.8,10.8,10.8s10.8-4.9,10.8-10.8-.5-1.2-1.2-1.2h-1.6l-6.3-16.9h5.5c.7,0,1.2-.5,1.2-1.2s-.5-1.2-1.2-1.2h-14c-1.5,0-2.9-.6-4-1.6-2-2-4.5-3.1-7.3-3.2v-3.6c0-1.3-1.1-2.4-2.4-2.4h-2.4c-1.3,0-2.4,1.1-2.4,2.4v3.6c-2.7,0-5.3,1.2-7.3,3.2-1,1-2.5,1.6-4,1.6H3.6c-1.6,0-1.6,2.4,0,2.4,0,0,5.5,0,5.5,0L2.8,30.1h-1.6c-.7,0-1.2.5-1.2,1.2,0,6,4.9,10.8,10.8,10.8h0ZM54.2,39.7c-4.2,0-7.8-3.1-8.3-7.2,0,0,16.7,0,16.7,0-.6,4.1-4.1,7.2-8.3,7.2ZM48.7,30.1l5.5-14.6,5.5,14.6h-11,0ZM31.3,2.4h2.4v53h-2.4V2.4ZM11.6,32.5c1.6,0,1.6-2.4,0-2.4h-6.3l5.5-14.6,6.1,16.3c.2.4.6.8,1.1.8h1.1c-.6,4.1-4.1,7.2-8.3,7.2s-7.8-3.1-8.3-7.2c0,0,9.1,0,9.1,0h0Z"/>
</svg>