<?xml version="1.0" encoding="UTF-8"?>
<svg id="Layer_1" data-name="Layer 1" xmlns="http://www.w3.org/2000/svg" version="1.1" viewBox="0 0 65 65">
  <defs>
    <style>
      .cls-1 {
        fill: #e22829;
        stroke-width: 0px;
      }
    </style>
  </defs>
  <path class="cls-1" d="M34.8,28.7c-.6-.4-1.4-.2-1.8.4l-3.5,5.5c-.4.6-.2,1.4.4,1.8.2.1.4.2.7.2.4,0,.8-.2,1.1-.6l3.5-5.5c.4-.6.2-1.4-.4-1.8h0Z"/>
  <path class="cls-1" d="M27.9,28.8c-.5-.5-1.3-.5-1.8,0l-2.6,2.7c-.5.5-.5,1.3,0,1.8l2.6,2.7c.2.3.6.4.9.4s.6-.1.9-.4c.5-.5.5-1.3,0-1.8l-1.8-1.9,1.8-1.9c.5-.5.5-1.3,0-1.8h0Z"/>
  <path class="cls-1" d="M38.9,28.9c-.5-.5-1.3-.5-1.8,0-.5.5-.5,1.3,0,1.8l1.8,1.9-1.8,1.9c-.5.5-.5,1.3,0,1.8.2.2.6.4.9.4s.7-.1.9-.4l2.6-2.7c.5-.5.5-1.3,0-1.8l-2.6-2.7Z"/>
  <path class="cls-1" d="M62.5,13.9c1.4,0,2.5-1.1,2.5-2.5V2.5c0-1.4-1.1-2.5-2.5-2.5h-8.8c-1.4,0-2.5,1.1-2.5,2.5v3.1h-11.7v-3.1c0-1.4-1.1-2.5-2.5-2.5h-8.8c-1.4,0-2.5,1.1-2.5,2.5v3.1h-11.7v-3.1c0-1.4-1.1-2.5-2.5-2.5H2.5C1.1,0,0,1.1,0,2.5v8.8c0,1.4,1.1,2.5,2.5,2.5h3.1v11.7h-3.1C1.1,25.6,0,26.7,0,28.1v8.8c0,1.4,1.1,2.5,2.5,2.5h3.1v11.7h-3.1C1.1,51.1,0,52.2,0,53.6v8.8c0,1.4,1.1,2.5,2.5,2.5h8.8c1.4,0,2.5-1.1,2.5-2.5v-3.1h11.7v3.1c0,1.4,1.1,2.5,2.5,2.5h8.8c1.4,0,2.5-1.1,2.5-2.5v-3.1h11.7v3.1c0,1.4,1.1,2.5,2.5,2.5h8.8c1.4,0,2.5-1.1,2.5-2.5v-8.8c0-1.4-1.1-2.5-2.5-2.5h-3.1v-11.7h3.1c1.4,0,2.5-1.1,2.5-2.5v-8.8c0-1.4-1.1-2.5-2.5-2.5h-3.1v-11.7h3.1ZM53.7,2.5h8.8v8.8h-8.8V2.5ZM28.1,2.5h8.8s0,0,0,0v8.8h-8.8V2.5h0ZM2.5,2.5h8.8s0,0,0,0v8.8H2.5V2.5ZM8.2,13.9h3.1c1.4,0,2.5-1.1,2.5-2.5v-3.1h11.7v3.1c0,1.4,1.1,2.5,2.5,2.5h3.1v4.3h-10.4c-1.4,0-2.5,1.1-2.5,2.5v10.5h-4.4v-3.1c0-1.4-1.1-2.5-2.5-2.5h-3.1v-11.7ZM2.5,28.1s0,0,0,0h8.8v8.8H2.5v-8.8ZM11.4,62.5H2.5v-8.8h8.8v8.8ZM25.6,53.6v3.1h-11.7v-3.1c0-1.4-1.1-2.5-2.5-2.5h-3.1v-11.7h3.1c1.4,0,2.5-1.1,2.5-2.5v-3.1h4.4v10.2c0,1.4,1.1,2.5,2.5,2.5h10.4v4.6h-3.1c-1.4,0-2.5,1.1-2.5,2.5h0ZM36.9,62.5h-8.8s0,0,0,0v-8.8h8.8v8.8h0ZM62.5,62.5h-8.8s0,0,0,0v-8.8h8.8v8.8ZM56.8,51.1h-3.1c-1.4,0-2.5,1.1-2.5,2.5v3.1h-11.7v-3.1c0-1.4-1.1-2.5-2.5-2.5h-3.1v-4.6h5.8c.7,0,1.3-.6,1.3-1.3s-.6-1.3-1.3-1.3h-18.7v-23.3h23.3v18.7c0,.7.6,1.3,1.3,1.3s1.3-.6,1.3-1.3v-5.7h4.4v3.1c0,1.4,1.1,2.5,2.5,2.5h3.1v11.7h0ZM62.5,36.9s0,0,0,0h-8.8v-8.8h8.8v8.8ZM56.8,25.6h-3.1c-1.4,0-2.5,1.1-2.5,2.5v3.1h-4.4v-10.5c0-1.4-1.1-2.5-2.5-2.5h-10.4v-4.3h3.1c1.4,0,2.5-1.1,2.5-2.5v-3.1h11.7v3.1c0,1.4,1.1,2.5,2.5,2.5h3.1v11.7h0Z"/>
  <circle class="cls-1" cx="45.2" cy="45.2" r="1.3"/>
</svg>