<?xml version="1.0" encoding="UTF-8"?>
<svg id="Layer_1" data-name="Layer 1" xmlns="http://www.w3.org/2000/svg" version="1.1" viewBox="0 0 65 65">
  <defs>
    <style>
      .cls-1 {
        fill: #e22829;
        stroke-width: 0px;
      }
    </style>
  </defs>
  <path class="cls-1" d="M47.9,36.1c0-1.3-.8-2.5-2-2.9v-2.8h14.2c2.7,0,4.9-2.2,4.9-4.9V4.9c0-2.7-2.2-4.9-4.9-4.9h-30.6c-2.7,0-4.9,2.2-4.9,4.9v10.8h-7.7c1.8-1.5,3.1-4,3.1-7s-2.5-6.7-6.5-6.7-6.5,2.6-6.5,6.7,1.2,5.5,3.1,7h-2.6C3.9,15.7,0,18,0,21.7v12.6c0,1.6.5,3,1.7,4.2,1,1,2.3,1.6,3.7,1.8v23.7c0,.6.5,1,1,1s1-.5,1-1V21.7c0-.6-.5-1-1-1s-1,.5-1,1v16.4c-.8-.2-1.6-.6-2.2-1.2-.7-.7-1.1-1.7-1.1-2.7v-12.6c0-2.6,3.1-3.9,5.3-3.9h22.6c.2,0,.5,0,.6-.2l5.2-4.1c.4-.3,1-.3,1.4.2.3.4.3,1-.2,1.4l-5.6,4.4s0,0,0,0c-.2.2-.4.3-.7.3h-7.4c-.3,0-.6.1-.8.4l-2.9,3.5c-.2.2-.2.4-.2.7v39.6c0,.6.4,1,1,1.1h0c.6,0,1-.5,1-1V24.7c0,0,2.4-2.9,2.4-2.9h.8v3.6c0,2.7,2.2,4.9,4.9,4.9h14.2v2.8c-1.2.4-2,1.6-2,2.9s1.4,3.1,3.1,3.1,3.1-1.4,3.1-3.1h0ZM9,8.7c0-4,2.8-4.6,4.4-4.6s4.4.6,4.4,4.6-2,6.1-4.4,6.1-4.4-2.8-4.4-6.1ZM26.7,25.5v-3.6h4c.8,0,1.5-.3,2.1-.8l5.6-4.4c1-.8,1.4-2,1.1-3.2l8.3-6.5c.5-.4.5-1,.2-1.5-.4-.5-1-.5-1.5-.2l-8.2,6.4c-1.1-.8-2.6-.8-3.7,0l-4.9,3.8h-2.9V4.9c0-1.5,1.3-2.8,2.8-2.8h30.6c1.5,0,2.8,1.3,2.8,2.8v20.6c0,1.5-1.3,2.8-2.8,2.8h-30.6c-1.6,0-2.8-1.3-2.8-2.8ZM44.8,37.1c-.5,0-1-.4-1-1s.4-1,1-1h0c.5,0,1,.4,1,1s-.4,1-1,1ZM14.3,40.3v23.7c0,.6-.5,1-1,1s-1-.5-1-1v-23.7c0-.6.5-1,1-1s1,.5,1,1h0ZM65,63.8c-.4-3.5-2.6-6.3-5.7-7.6,1-1,1.7-2.3,1.7-3.8,0-2.9-2.3-5.2-5.2-5.2s-5.2,2.3-5.2,5.2.6,2.9,1.7,3.8c-3.1,1.3-5.3,4.1-5.7,7.6,0,.3,0,.6.3.8s.5.3.8.3h16.4c.3,0,.6-.1.8-.3s.3-.5.3-.8ZM52.6,52.4c0-1.7,1.4-3.1,3.1-3.1s3.1,1.4,3.1,3.1-1.4,3.1-3.1,3.1-3.1-1.4-3.1-3.1ZM48.8,62.9c.8-3.1,3.6-5.3,6.9-5.3s6.1,2.2,6.9,5.3h-13.9ZM39,56.3c1-1,1.7-2.3,1.7-3.8,0-2.9-2.3-5.2-5.2-5.2s-5.2,2.3-5.2,5.2.6,2.9,1.7,3.8c-3.1,1.3-5.3,4.1-5.7,7.6,0,.3,0,.6.3.8s.5.3.8.3h16.4c.3,0,.6-.1.8-.3s.3-.5.3-.8c-.4-3.5-2.6-6.3-5.7-7.6ZM32.3,52.4c0-1.7,1.4-3.1,3.1-3.1s3.1,1.4,3.1,3.1-1.4,3.1-3.1,3.1-3.1-1.4-3.1-3.1h0ZM28.5,62.9c.8-3.1,3.6-5.3,6.9-5.3s6.1,2.2,6.9,5.3h-13.9ZM57.9,25.5h-26.3c-.6,0-1-.5-1-1s.5-1,1-1h26.3c.6,0,1,.5,1,1s-.5,1-1,1ZM39.4,18.3c0-.6.5-1,1-1h17.5c.6,0,1,.5,1,1s-.5,1-1,1h-17.5c-.6,0-1-.5-1-1ZM44.4,12.1c0-.6.5-1,1-1h12.6c.6,0,1,.5,1,1s-.5,1-1,1h-12.6c-.6,0-1-.5-1-1ZM50.4,5.9c0-.6.5-1,1-1h6.4c.6,0,1,.5,1,1s-.5,1-1,1h-6.4c-.6,0-1-.5-1-1ZM42.5,5.9c0,.6-.5,1-1,1h-9.9c-.6,0-1-.5-1-1s.5-1,1-1h9.9c.6,0,1,.5,1,1Z"/>
</svg>