<svg xmlns="http://www.w3.org/2000/svg" width="198" height="28" viewBox="0 0 198 28" fill="none">
  <g clip-path="url(#clip0_186_131)">
    <path d="M25.1573 27.4791V0H31.4141V27.4791H25.1573ZM147.164 17.1907C147.164 10.5488 141.95 6.3814 135.954 6.3814C129.828 6.3814 124.744 10.5488 124.744 17.1907C124.744 23.8326 129.958 28 135.954 28C141.95 28 147.164 23.8326 147.164 17.1907ZM140.907 17.1907C140.907 20.707 138.561 22.6605 135.824 22.6605C133.086 22.6605 130.74 20.707 130.74 17.1907C130.74 13.6744 133.086 11.8512 135.824 11.8512C138.561 11.8512 140.907 13.6744 140.907 17.1907ZM22.6807 19.6651C22.6807 16.5395 21.1165 14.1953 18.2488 13.1535C20.9862 11.7209 21.8986 9.76744 21.8986 7.42326C21.8986 3.38605 19.0309 0.130233 12.5135 0.130233H0V27.6093H13.0349C19.5523 27.4791 22.6807 24.2233 22.6807 19.6651ZM15.2508 8.07442C15.2508 9.89767 14.0777 11.0698 11.7314 11.0698H6.51745V5.33953H11.7314C13.817 5.33953 15.2508 6.25116 15.2508 8.07442ZM15.7722 19.1442C15.7722 20.9674 14.4687 22.1395 12.1224 22.1395H6.51745V16.1488H12.1224C14.4687 16.1488 15.7722 17.3209 15.7722 19.1442ZM77.2969 12.1116C75.6024 8.46512 72.3437 6.51163 67.5207 6.51163C61.7854 6.51163 56.7018 10.1581 56.7018 17.1907C56.7018 24.093 61.264 28 67.5207 28C71.9526 28 75.6024 26.307 77.4273 22.5302L72.3437 19.9256C71.4312 21.6186 69.9974 22.6605 67.7814 22.6605C64.9138 22.6605 62.9585 20.5767 62.9585 17.1907C62.9585 13.8047 65.0441 11.8512 67.6511 11.8512C69.7367 11.8512 71.1705 12.7628 72.2133 14.7163L77.2969 12.1116ZM169.714 12.1116C168.02 8.46512 164.761 6.51163 159.938 6.51163C154.203 6.51163 149.119 10.1581 149.119 17.1907C149.119 24.093 153.681 28 159.938 28C164.37 28 168.02 26.307 169.845 22.5302L164.761 19.9256C163.849 21.6186 162.415 22.6605 160.199 22.6605C157.331 22.6605 155.376 20.5767 155.376 17.1907C155.376 13.8047 157.462 11.8512 160.068 11.8512C162.154 11.8512 163.588 12.7628 164.631 14.7163L169.714 12.1116ZM117.184 27.4791L111.97 18.2326H107.929V27.4791H101.411V0H113.013C119.4 0 123.831 2.99535 123.831 8.98605C123.831 12.7628 122.007 15.4977 118.618 17.0605L124.614 27.4791H117.184ZM107.929 12.7628H112.752C115.75 12.7628 117.184 11.0698 117.184 9.11628C117.184 6.77209 115.75 5.46977 112.752 5.46977H107.929V12.7628ZM55.659 27.2186V22.9209C55.3983 23.0512 55.0072 23.0512 54.6162 23.0512C53.8341 23.0512 53.4431 22.6605 53.4431 21.8791V14.7163C53.4431 9.37674 49.7933 6.51163 43.9276 6.51163C40.0171 6.51163 36.7584 7.94419 34.6728 9.76744L38.1922 13.6744C39.4957 12.5023 41.3206 11.7209 43.0151 11.7209C45.7525 11.7209 47.056 13.1535 47.056 15.3674V16.0186C45.7525 15.7581 44.0579 15.3674 42.1027 15.3674C37.1494 15.3674 33.8907 17.7116 33.8907 21.7488C33.8907 25.786 36.628 28 40.7992 28C43.6669 28 46.2739 26.8279 47.5774 25.2651C48.3594 27.3488 50.1843 27.8698 51.8789 27.8698C53.052 27.8698 54.4858 27.6093 55.659 27.2186ZM47.1863 20.707C47.1863 22.5302 45.3614 23.8326 43.2758 23.8326C41.3206 23.8326 40.4082 22.7907 40.4082 21.4884C40.4082 20.0558 41.451 19.014 43.6669 19.014C44.9704 19.014 46.1435 19.2744 47.1863 19.4047V20.707ZM192.134 27.4791L184.704 14.7163L191.613 7.16279H184.704L177.405 15.2372V0H171.148V27.4791H177.405V22.5302L180.403 19.4047L185.095 27.4791H192.134ZM99.8473 27.4791L92.4174 14.7163L99.3259 7.16279H92.287L84.9875 15.2372V0H78.7308V27.4791H84.9875V22.5302L87.9855 19.4047L92.6781 27.4791H99.8473ZM196.045 23.7023C197.348 23.7023 198.13 24.4837 198.13 25.786C198.13 27.0884 197.348 27.8698 196.045 27.8698C194.741 27.8698 193.959 27.0884 193.959 25.786C193.959 24.4837 194.741 23.7023 196.045 23.7023ZM196.045 27.4791C197.088 27.4791 197.739 26.8279 197.739 25.786C197.739 24.7442 196.957 24.093 196.045 24.093C195.002 24.093 194.35 24.7442 194.35 25.786C194.22 26.9581 195.002 27.4791 196.045 27.4791ZM195.132 24.7442H195.914C196.436 24.7442 196.697 25.0047 196.697 25.3953C196.697 25.786 196.566 25.9163 196.305 26.0465L196.697 26.8279H196.305L195.914 26.1767H195.523V26.8279H195.132V24.7442ZM195.523 25.0047V25.786H195.914C196.175 25.786 196.305 25.6558 196.305 25.3953C196.305 25.1349 196.175 25.0047 195.914 25.0047H195.523Z" fill="#9BA3B2"/>
  </g>
  <defs>
    <clipPath id="clip0_186_131">
      <rect width="198" height="28" fill="white"/>
    </clipPath>
  </defs>
</svg>