<svg xmlns="http://www.w3.org/2000/svg" width="204" height="55" viewBox="0 0 204 55" fill="none">
  <rect width="204" height="55" fill="white"/>
  <path d="M90.6922 29.2278C90.6922 36.6603 84.8783 42.1372 77.7433 42.1372C70.6083 42.1372 64.7944 36.6603 64.7944 29.2278C64.7944 21.7429 70.6083 16.3184 77.7433 16.3184C84.8783 16.3184 90.6922 21.7429 90.6922 29.2278ZM85.0238 29.2278C85.0238 24.5832 81.6542 21.4053 77.7433 21.4053C73.8325 21.4053 70.4628 24.5832 70.4628 29.2278C70.4628 33.8258 73.8325 37.0503 77.7433 37.0503C81.6542 37.0503 85.0238 33.82 85.0238 29.2278Z" fill="#9BA3B2"/>
  <path d="M118.627 29.2278C118.627 36.6603 112.813 42.1372 105.678 42.1372C98.5429 42.1372 92.729 36.6603 92.729 29.2278C92.729 21.7487 98.5429 16.3184 105.678 16.3184C112.813 16.3184 118.627 21.7429 118.627 29.2278ZM112.958 29.2278C112.958 24.5832 109.589 21.4053 105.678 21.4053C101.767 21.4053 98.3974 24.5832 98.3974 29.2278C98.3974 33.8258 101.767 37.0503 105.678 37.0503C109.589 37.0503 112.958 33.82 112.958 29.2278Z" fill="#9BA3B2"/>
  <path d="M145.398 17.0983V40.2747C145.398 49.8084 139.776 53.7022 133.13 53.7022C126.874 53.7022 123.108 49.5174 121.688 46.095L126.623 44.0405C127.502 46.1416 129.655 48.621 133.124 48.621C137.378 48.621 140.015 45.9961 140.015 41.0546V39.198H139.817C138.548 40.7636 136.104 42.1314 133.019 42.1314C126.565 42.1314 120.652 36.509 120.652 29.2744C120.652 21.9873 126.565 16.3184 133.019 16.3184C136.098 16.3184 138.542 17.6861 139.817 19.2052H140.015V17.1041H145.398V17.0983ZM140.416 29.2744C140.416 24.7287 137.384 21.4053 133.526 21.4053C129.615 21.4053 126.338 24.7287 126.338 29.2744C126.338 33.7734 129.615 37.0503 133.526 37.0503C137.384 37.0503 140.416 33.7734 140.416 29.2744Z" fill="#9BA3B2"/>
  <path d="M154.273 3.51367V41.3456H148.744V3.51367H154.273Z" fill="#9BA3B2"/>
  <path d="M175.817 33.4766L180.217 36.41C178.797 38.5111 175.375 42.1314 169.462 42.1314C162.129 42.1314 156.653 36.4624 156.653 29.2219C156.653 21.545 162.176 16.3125 168.828 16.3125C175.526 16.3125 178.803 21.6439 179.874 24.5249L180.461 25.9917L163.206 33.139C164.527 35.729 166.581 37.0502 169.462 37.0502C172.349 37.0502 174.351 35.6301 175.817 33.4766ZM162.275 28.832L173.809 24.0419C173.175 22.4296 171.266 21.3063 169.02 21.3063C166.139 21.3063 162.129 23.8498 162.275 28.832Z" fill="#9BA3B2"/>
  <path d="M43.8669 25.8696V20.3927H62.3212C62.5016 21.3472 62.5948 22.4763 62.5948 23.6986C62.5948 27.8077 61.4715 32.8889 57.8517 36.5091C54.3307 40.1759 49.8321 42.1315 43.8727 42.1315C32.8269 42.1315 23.5386 33.1333 23.5386 22.0864C23.5386 11.0394 32.8269 2.04126 43.8727 2.04126C49.9834 2.04126 54.3366 4.43923 57.6072 7.56473L53.7429 11.4294C51.3976 9.22933 48.22 7.51817 43.8669 7.51817C35.8007 7.51817 29.4922 14.0194 29.4922 22.0864C29.4922 30.1533 35.8007 36.6546 43.8669 36.6546C49.0988 36.6546 52.0785 34.5535 53.9874 32.6444C55.5354 31.0962 56.5539 28.8845 56.9554 25.8638L43.8669 25.8696Z" fill="#9BA3B2"/>
</svg>