<svg width="300" height="53" viewBox="0 0 300 53" fill="none" xmlns="http://www.w3.org/2000/svg">
<path d="M44.2123 31.583C43.3126 32.1366 42.263 32.2373 41.4633 31.7843C40.4636 31.1804 39.8638 29.8216 39.8638 27.9595V22.2727C39.8638 19.5551 38.8142 17.5923 37.0148 17.0891C33.9659 16.1832 31.6667 19.9577 30.817 21.3668L25.4189 30.0733V19.3538C25.3689 16.8878 24.5692 15.4283 23.0697 14.9754C22.0701 14.6734 20.5706 14.8244 19.1211 17.0388L7.07535 36.4647C5.47591 33.3948 4.62621 29.9726 4.62621 26.5001C4.62621 14.7741 13.9729 5.2624 25.4189 5.2624C36.8649 5.2624 46.2116 14.7741 46.2116 26.5001V26.5504V26.6007C46.3115 28.8654 45.6118 30.6772 44.2123 31.583ZM50.81 26.5001V26.4498V26.3994C50.76 12.1571 39.364 0.531738 25.4189 0.531738C11.4238 0.531738 0.027832 12.1571 0.027832 26.5001C0.027832 40.7927 11.4238 52.4684 25.4189 52.4684C31.8666 52.4684 37.9645 50.0024 42.6628 45.5234C43.6125 44.6175 43.6625 43.1581 42.7628 42.2019C41.9131 41.2457 40.4636 41.1953 39.5139 42.0509C39.5139 42.0509 39.5139 42.0509 39.464 42.1012C35.6653 45.7247 30.5671 47.7881 25.3189 47.7881C19.1711 47.7881 13.673 45.0705 9.87437 40.7424L20.7206 23.2289V31.3314C20.7206 35.2065 22.22 36.4647 23.4696 36.817C24.7191 37.1693 26.6185 36.9176 28.6678 33.6464L34.6157 23.9334C34.8156 23.6315 34.9655 23.3295 35.1655 23.1282V28.0602C35.1655 31.6837 36.615 34.6026 39.1141 36.0117C41.3633 37.3202 44.2123 37.1692 46.5615 35.7098C49.4604 33.7974 51.0099 30.4759 50.81 26.5001ZM86.1975 17.6427C86.7973 17.9949 87.3471 18.8505 87.3471 19.6054C87.3471 20.8132 86.3475 21.8198 85.1979 21.8198C84.898 21.8198 84.6481 21.7191 84.3982 21.6688C83.0486 20.6622 81.3492 20.008 79.5499 20.008C75.3014 20.008 72.4024 23.4805 72.4024 27.8086C72.4024 32.1366 75.3513 35.5588 79.5499 35.5588C81.6491 35.5588 83.5485 34.7033 84.948 33.3445C85.2978 33.0928 85.7477 32.9418 86.1975 32.9418C87.3471 32.9418 88.2468 33.8477 88.2468 35.0052C88.2468 35.7601 87.797 36.4144 87.2472 36.7666C85.1979 38.5281 82.4488 39.6856 79.5998 39.6856C73.1021 39.6856 67.804 34.3007 67.804 27.6576C67.804 21.0145 73.1021 15.6296 79.5998 15.6296C81.999 15.5793 84.2982 16.3342 86.1975 17.6427ZM98.0933 22.6753C102.542 22.6753 106.24 26.4498 106.24 31.1301C106.24 35.7601 102.492 39.7359 98.0933 39.7359C93.445 39.7359 89.5963 35.8105 89.5963 31.1301C89.5963 26.4498 93.445 22.6753 98.0933 22.6753ZM98.0434 35.5588C99.9927 35.5588 101.642 33.6967 101.642 31.1804C101.642 28.6641 99.9927 27.0537 98.0434 27.0537C95.9441 27.0537 94.1947 28.6138 94.1947 31.1804C94.1947 33.6464 95.9441 35.5588 98.0434 35.5588ZM109.039 37.1189V25.2419C109.039 23.9334 110.039 22.8766 111.339 22.8766C112.588 22.8766 113.638 23.9334 113.638 25.2419V37.1189C113.638 38.4274 112.588 39.4843 111.339 39.4843C110.089 39.4843 109.039 38.3771 109.039 37.1189ZM108.69 18.3976C108.69 16.8374 109.889 15.6296 111.339 15.6296C112.838 15.6296 114.038 16.8878 114.038 18.3976C114.038 19.9073 112.838 21.1152 111.339 21.1152C109.839 21.0648 108.69 19.857 108.69 18.3976ZM122.435 30.6772V37.1189C122.435 38.4274 121.385 39.4843 120.136 39.4843C118.886 39.4843 117.836 38.4274 117.836 37.1189V24.6883C117.836 23.6818 118.636 22.8766 119.636 22.8766C120.635 22.8766 121.385 23.7321 121.385 24.6883C123.234 22.9269 124.884 22.6753 126.433 22.6753C131.032 22.6753 133.081 26.1478 133.081 30.1236V37.1189C133.081 38.4274 132.031 39.4843 130.782 39.4843C129.532 39.4843 128.483 38.4274 128.483 37.1189V30.6772C128.483 28.6641 128.233 26.953 125.334 26.953C123.284 26.953 122.435 28.6641 122.435 30.6772ZM147.976 33.1432C147.426 33.1432 147.076 32.8915 146.776 32.5392L141.428 26.7014V37.1189C141.428 38.4274 140.378 39.4843 139.129 39.4843C137.879 39.4843 136.83 38.4274 136.83 37.1189V16.4852C136.98 16.1329 137.33 15.8812 137.679 15.8812C138.079 15.8812 138.429 16.2335 138.679 16.4852L147.226 26.1478C147.476 26.4498 147.776 26.6007 147.976 26.6007C148.126 26.6007 148.476 26.4498 148.726 26.1478L157.273 16.4852C157.522 16.2335 157.822 15.8812 158.272 15.8812C158.672 15.8812 159.022 16.1329 159.122 16.4852V37.1189C159.122 38.4274 158.122 39.4843 156.823 39.4843C155.573 39.4843 154.523 38.4274 154.523 37.1189V26.7014L149.175 32.5392C148.776 32.8915 148.426 33.1432 147.976 33.1432ZM170.068 35.5588C172.117 35.5588 173.867 33.6967 173.867 31.1804C173.867 28.6641 172.067 27.0033 170.068 27.0033C168.069 27.0033 166.419 28.7144 166.419 31.1804C166.419 33.5961 168.019 35.5588 170.068 35.5588ZM174.966 37.6725L174.866 37.1189C173.967 38.8803 171.118 39.6856 169.318 39.6856C165.02 39.6856 161.821 35.7601 161.821 31.0798C161.821 26.4498 165.07 22.625 169.568 22.625C170.318 22.625 172.917 22.8263 174.916 25.1916L175.016 24.638C175.016 23.6315 175.766 22.8263 176.766 22.8263C177.765 22.8263 178.565 23.6818 178.565 24.638V37.6222C178.565 38.6287 177.765 39.4339 176.766 39.4339C175.716 39.4843 174.966 38.6287 174.966 37.6725ZM191.211 26.953H190.711C187.812 27.104 187.262 28.7648 187.262 30.6772V37.1189C187.262 38.4274 186.212 39.4843 184.963 39.4843C183.713 39.4843 182.664 38.4274 182.664 37.1189V24.6883C182.664 23.6818 183.463 22.8766 184.463 22.8766C185.463 22.8766 186.212 23.7321 186.212 24.6883C187.912 23.0779 189.311 22.7256 190.711 22.6753H191.161C192.26 22.6753 193.26 23.6315 193.26 24.8393C193.31 25.9465 192.31 26.953 191.211 26.953ZM208.954 36.0117C209.154 36.364 209.304 36.7163 209.304 37.1189C209.304 38.3268 208.205 39.4339 207.005 39.4339C206.205 39.4339 205.506 38.83 204.956 38.1255L199.658 31.9353V37.0686C199.658 38.3771 198.608 39.4339 197.358 39.4339C196.109 39.4339 195.059 38.3771 195.059 37.0686V18.1963C195.059 16.8878 196.059 15.8309 197.358 15.8309C198.658 15.8309 199.658 16.8878 199.658 18.1963V29.9726L204.956 24.0844C205.506 23.4805 206.155 22.8263 206.955 22.8263C208.105 22.8263 209.154 23.8831 209.154 25.091C209.154 25.4432 209.054 25.8458 208.854 26.1478L204.656 30.7778L208.954 36.0117ZM217.951 27.0033C216.702 27.0033 214.652 27.6576 214.652 29.6203H221.3C221.25 27.6576 219.151 27.0033 217.951 27.0033ZM223.949 32.5896H214.652C214.652 35.3575 217.301 35.8104 218.451 35.8104C219.301 35.8104 220.5 35.6595 221.45 35.2065C221.75 35.0052 222.2 34.8542 222.65 34.8542C223.649 34.8542 224.499 35.7098 224.499 36.7666C224.499 37.4712 224.049 38.0751 223.499 38.4274C222.1 39.4843 220.25 39.7359 218.501 39.7359C213.853 39.7359 210.004 37.2196 210.004 31.3314C210.004 26.7014 212.353 22.6753 217.851 22.6753C222.3 22.6753 225.648 25.5942 225.748 30.7778C225.748 31.734 224.949 32.5896 223.949 32.5896ZM236.745 39.6856H235.495C231.996 39.6856 229.947 38.1255 229.947 32.6399V26.953H228.747C227.648 26.953 226.698 25.9465 226.698 24.8393C226.698 23.6315 227.698 22.6753 228.747 22.6753H229.947V18.2969C229.947 16.9884 230.947 15.9316 232.246 15.9316C233.496 15.9316 234.545 16.9884 234.545 18.2969V22.6753H236.445C237.544 22.6753 238.494 23.6315 238.494 24.8393C238.494 25.9465 237.494 26.953 236.445 26.953H234.545V31.734C234.545 34.9046 234.695 35.5588 236.095 35.5588H236.745C237.844 35.5588 238.794 36.4647 238.794 37.6222C238.794 38.7294 237.844 39.6856 236.745 39.6856ZM258.987 17.6427C259.587 17.9949 260.136 18.8505 260.136 19.6054C260.136 20.8132 259.137 21.8198 257.987 21.8198C257.687 21.8198 257.437 21.7191 257.187 21.6688C255.838 20.6622 254.138 20.008 252.339 20.008C248.091 20.008 245.192 23.4805 245.192 27.8086C245.192 32.1366 248.141 35.5588 252.339 35.5588C254.438 35.5588 256.338 34.7033 257.737 33.3445C258.087 33.0928 258.537 32.9418 258.987 32.9418C260.136 32.9418 261.036 33.8477 261.036 35.0052C261.036 35.7601 260.586 36.4144 260.036 36.7666C257.987 38.5281 255.238 39.6856 252.389 39.6856C245.891 39.6856 240.593 34.3007 240.593 27.6576C240.593 21.0145 245.891 15.6296 252.389 15.6296C254.788 15.5793 257.137 16.3342 258.987 17.6427ZM270.633 35.5588C272.682 35.5588 274.431 33.6967 274.431 31.1804C274.431 28.6641 272.632 27.0033 270.633 27.0033C268.583 27.0033 266.984 28.7144 266.984 31.1804C266.984 33.5961 268.633 35.5588 270.633 35.5588ZM275.531 37.6725L275.431 37.1189C274.531 38.8803 271.682 39.6856 269.883 39.6856C265.584 39.6856 262.386 35.7601 262.386 31.0798C262.386 26.4498 265.634 22.625 270.133 22.625C270.883 22.625 273.482 22.8263 275.481 25.1916L275.581 24.638C275.581 23.6315 276.331 22.8263 277.33 22.8263C278.33 22.8263 279.13 23.6818 279.13 24.638V37.6222C279.13 38.6287 278.33 39.4339 277.33 39.4339C276.281 39.4843 275.531 38.6287 275.531 37.6725ZM291.675 35.5588C293.725 35.5588 295.324 33.5961 295.324 31.1804C295.324 28.6641 293.675 27.0033 291.675 27.0033C289.626 27.0033 287.877 28.6641 287.877 31.1804C287.877 33.6967 289.626 35.5588 291.675 35.5588ZM287.877 38.3268V44.2149C287.877 45.5234 286.827 46.5803 285.577 46.5803C284.328 46.5803 283.278 45.5234 283.278 44.2149V24.6883C283.278 23.6818 284.078 22.8766 285.078 22.8766C286.077 22.8766 286.827 23.7321 286.827 24.8896C288.526 23.1282 290.626 22.6753 292.225 22.6753C296.673 22.6753 299.972 26.4498 299.972 31.1301C299.972 35.7601 296.823 39.7359 292.475 39.7359C291.125 39.6856 289.126 39.283 287.877 38.3268Z" fill="#9BA3B2"/>
</svg>
