<svg width="111" height="111" viewBox="0 0 111 111" fill="none" xmlns="http://www.w3.org/2000/svg">
<circle cx="55.5" cy="55.5" r="55.5" fill="#FAFAFA"/>
<circle cx="56" cy="56" r="33" fill="#F1F1F1"/>
<path fill-rule="evenodd" clip-rule="evenodd" d="M55.9436 47.1262V43C48.243 43 42 49.2652 42 56.9931C42 64.721 48.243 70.9862 55.9436 70.9862V66.86C50.5119 66.86 46.1116 62.4441 46.1116 56.9931C46.1116 51.5421 50.5119 47.1262 55.9436 47.1262ZM55.9436 51.2799C52.7946 51.2799 50.2369 53.8467 50.2369 57.0069C50.2369 60.1671 52.7946 62.7339 55.9436 62.7339V51.2799Z" fill="#101010"/>
<path fill-rule="evenodd" clip-rule="evenodd" d="M55.9435 51.2799V54.9369H69.7359C69.5433 53.6535 69.1858 52.4253 68.677 51.2799H55.9435ZM65.8306 47.1262C63.3141 44.5732 59.8076 43 55.9435 43V47.1262H65.8306ZM55.9435 71V66.8738H65.8306C63.3004 69.4268 59.8076 71 55.9435 71ZM55.9435 62.7201H68.677C69.1858 61.5747 69.5571 60.3465 69.7359 59.0631H55.9435V62.7201Z" fill="#2F44FF"/>
</svg>
