<svg width="28" height="28" viewBox="0 0 28 28" fill="none" xmlns="http://www.w3.org/2000/svg">
<path fill-rule="evenodd" clip-rule="evenodd" d="M13.9436 4.12617V0C6.24298 0 0 6.26516 0 13.9931C0 21.721 6.24298 27.9862 13.9436 27.9862V23.86C8.5119 23.86 4.11157 19.4441 4.11157 13.9931C4.11157 8.54214 8.5119 4.12617 13.9436 4.12617ZM13.9436 8.27994C10.7946 8.27994 8.23688 10.8467 8.23688 14.0069C8.23688 17.1671 10.7946 19.7339 13.9436 19.7339V8.27994Z" fill="#F1F1F1"/>
<path fill-rule="evenodd" clip-rule="evenodd" d="M13.9435 8.27994V11.9369H27.7359C27.5433 10.6535 27.1858 9.42533 26.677 8.27994H13.9435ZM23.8306 4.12617C21.3141 1.57319 17.8076 0 13.9435 0V4.12617H23.8306ZM13.9435 28V23.8738H23.8306C21.3004 26.4268 17.8076 28 13.9435 28ZM13.9435 19.7201H26.677C27.1858 18.5747 27.5571 17.3465 27.7359 16.0631H13.9435V19.7201Z" fill="#2F44FF"/>
</svg>
