<svg width="132" height="132" viewBox="0 0 132 132" fill="none" xmlns="http://www.w3.org/2000/svg">
<circle cx="66" cy="66" r="66" fill="#E7E7E7"/>
<circle cx="66.5946" cy="66.5946" r="39.2432" fill="white"/>
<path fill-rule="evenodd" clip-rule="evenodd" d="M66.5275 54.8528V49.946C57.37 49.946 49.9459 57.3965 49.9459 66.5865C49.9459 75.7765 57.37 83.2269 66.5275 83.2269V78.3201C60.0682 78.3201 54.8354 73.0687 54.8354 66.5865C54.8354 60.1043 60.0682 54.8528 66.5275 54.8528ZM66.5275 59.7925C62.7827 59.7925 59.7411 62.8449 59.7411 66.6029C59.7411 70.3609 62.7827 73.4133 66.5275 73.4133V59.7925Z" fill="#101010"/>
<path fill-rule="evenodd" clip-rule="evenodd" d="M66.5275 59.7925V64.1413H82.9291C82.7002 62.6151 82.275 61.1545 81.67 59.7925H66.5275ZM78.285 54.8528C75.2925 51.8169 71.1225 49.946 66.5275 49.946V54.8528H78.285ZM66.5275 83.2433V78.3365H78.285C75.2761 81.3725 71.1225 83.2433 66.5275 83.2433ZM66.5275 73.3969H81.67C82.275 72.0348 82.7165 70.5743 82.9291 69.0481H66.5275V73.3969Z" fill="#2F44FF"/>
<path d="M59.1582 14V5.43359H62.2754C63.0176 5.43359 63.623 5.63867 64.0918 6.04883C64.5605 6.45898 64.7949 7.01758 64.7949 7.72461C64.7949 8.57617 64.3438 9.20703 63.4414 9.61719V9.63477C63.957 9.72461 64.3711 9.9375 64.6836 10.2734C65 10.6055 65.1582 11.0391 65.1582 11.5742C65.1582 12.3594 64.8965 12.9609 64.373 13.3789C63.8535 13.793 63.1309 14 62.2051 14H59.1582ZM60.2949 13.0391H62.3984C62.8828 13.0391 63.2734 12.9102 63.5703 12.6523C63.8672 12.3906 64.0156 12.0312 64.0156 11.5742C64.0156 11.125 63.8672 10.7734 63.5703 10.5195C63.2734 10.2656 62.8828 10.1387 62.3984 10.1387H60.2949V13.0391ZM60.2949 9.17773H62.0586C62.5625 9.17773 62.9551 9.05469 63.2363 8.80859C63.5176 8.55859 63.6582 8.19727 63.6582 7.72461C63.6582 6.83789 63.125 6.39453 62.0586 6.39453H60.2949V9.17773Z" fill="black"/>
<path d="M81.0233 6.66556L82.0832 7.07619L79.3358 14.1681L83.2205 15.673L82.8734 16.5691L77.9287 14.6535L81.0233 6.66556Z" fill="black"/>
<path d="M102.791 17.2522C103.29 17.7074 103.666 18.214 103.919 18.772C104.174 19.327 104.299 19.8825 104.295 20.4385C104.295 20.9943 104.188 21.5412 103.972 22.0793C103.762 22.6171 103.453 23.1098 103.045 23.5572C102.637 24.0047 102.174 24.3593 101.655 24.6211C101.142 24.8826 100.607 25.0401 100.051 25.0934C99.5006 25.1465 98.9358 25.0731 98.357 24.8731C97.7808 24.6702 97.243 24.3412 96.7435 23.8859C96.3423 23.5201 96.0196 23.1203 95.7756 22.6864C95.5316 22.2525 95.3716 21.8133 95.2958 21.3689C95.2228 20.9271 95.2188 20.4821 95.2838 20.0339C95.3488 19.5857 95.4837 19.1536 95.6884 18.7377C95.8958 18.3189 96.1614 17.9319 96.485 17.5769C96.8087 17.2218 97.1682 16.9231 97.5635 16.6809C97.9614 16.4358 98.3805 16.2602 98.8207 16.1541C99.261 16.048 99.7045 16.0109 100.151 16.0428C100.601 16.0773 101.053 16.1961 101.507 16.399C101.962 16.602 102.39 16.8864 102.791 17.2522ZM98.3695 17.5188C97.9811 17.7303 97.633 18.0049 97.3251 18.3427C97.0172 18.6804 96.7758 19.0524 96.6011 19.4587C96.4292 19.8676 96.331 20.2855 96.3065 20.7124C96.2849 21.142 96.3643 21.5739 96.5447 22.0079C96.7278 22.4391 97.0099 22.8284 97.3909 23.1758C97.772 23.5231 98.1856 23.7681 98.6319 23.9106C99.0807 24.0502 99.5166 24.0881 99.9395 24.0243C100.362 23.9605 100.768 23.8229 101.156 23.6114C101.548 23.4025 101.897 23.1292 102.205 22.7914C102.513 22.4537 102.753 22.0804 102.925 21.6715C103.1 21.2652 103.199 20.8486 103.224 20.4217C103.248 19.9947 103.169 19.5656 102.986 19.1345C102.805 18.7004 102.525 18.3097 102.144 17.9623C101.763 17.6149 101.348 17.3714 100.899 17.2318C100.453 17.0893 100.017 17.0486 99.5908 17.1098C99.1679 17.1736 98.7608 17.3099 98.3695 17.5188Z" fill="black"/>
<path d="M113.273 39.5531C112.913 39.6364 112.543 39.655 112.162 39.609C111.786 39.5647 111.413 39.4557 111.043 39.2822C110.679 39.1104 110.328 38.853 109.991 38.51C109.66 38.1688 109.377 37.7622 109.142 37.2902C108.835 36.6747 108.662 36.0648 108.623 35.4603C108.588 34.854 108.671 34.2995 108.875 33.7967C109.078 33.294 109.374 32.8367 109.763 32.4251C110.157 32.0152 110.626 31.6745 111.172 31.4029C111.717 31.1312 112.27 30.9627 112.831 30.8972C113.397 30.8335 113.942 30.872 114.466 31.0126C114.99 31.1532 115.481 31.4213 115.94 31.8169C116.402 32.2107 116.787 32.7153 117.093 33.3308C117.327 33.7993 117.478 34.2564 117.547 34.702C117.62 35.1458 117.614 35.5607 117.532 35.9466C117.451 36.3361 117.317 36.6975 117.129 37.0308C116.945 37.3624 116.707 37.6774 116.415 37.9756L115.905 36.9528C116.299 36.4818 116.529 35.9878 116.594 35.4708C116.665 34.9556 116.545 34.385 116.233 33.7591C116.001 33.294 115.709 32.9162 115.354 32.6256C115.002 32.3385 114.622 32.1501 114.215 32.0604C113.812 31.9689 113.394 31.9524 112.96 32.0111C112.529 32.0733 112.101 32.2097 111.678 32.4204C111.255 32.6311 110.889 32.8899 110.579 33.1969C110.269 33.5038 110.028 33.8467 109.854 34.2255C109.684 34.6025 109.607 35.0182 109.624 35.4724C109.643 35.9301 109.769 36.3933 110.002 36.8618C110.315 37.4912 110.715 37.9444 111.202 38.2212C111.695 38.4998 112.215 38.6028 112.764 38.5303L113.273 39.5531Z" fill="black"/>
<path d="M115.804 52.3153L115.699 51.1835L124.229 50.3931L124.334 51.5249L120.034 51.9234L124.7 55.469L124.834 56.9159L120.951 53.8745L116.313 57.7997L116.187 56.4402L120.106 53.2054L118.646 52.0521L115.804 52.3153Z" fill="black"/>
<path d="M117.447 77.0594C117.125 76.8784 116.838 76.6427 116.588 76.3521C116.34 76.0664 116.138 75.7348 115.982 75.3572C115.828 74.9844 115.742 74.558 115.724 74.0778C115.709 73.6024 115.774 73.1111 115.918 72.6039C116.106 71.9426 116.39 71.3754 116.768 70.9023C117.15 70.4302 117.586 70.077 118.075 69.8425C118.564 69.608 119.09 69.4695 119.655 69.427C120.222 69.3894 120.799 69.454 121.385 69.6207C121.971 69.7875 122.493 70.0356 122.952 70.3651C123.413 70.6994 123.79 71.095 124.082 71.5518C124.375 72.0086 124.557 72.5378 124.63 73.1392C124.706 73.7416 124.65 74.3735 124.462 75.0348C124.319 75.5382 124.123 75.9779 123.873 76.3538C123.628 76.7307 123.345 77.0339 123.024 77.2634C122.702 77.4966 122.359 77.6732 121.996 77.7933C121.636 77.9144 121.248 77.9867 120.831 78.0103L121.144 76.9113C121.752 76.8285 122.255 76.6182 122.652 76.2802C123.051 75.9471 123.346 75.4443 123.538 74.7718C123.68 74.2721 123.718 73.7956 123.652 73.3423C123.585 72.8927 123.431 72.4977 123.191 72.1572C122.955 71.8178 122.657 71.5239 122.297 71.2753C121.936 71.0305 121.528 70.8434 121.074 70.714C120.619 70.5847 120.174 70.5291 119.738 70.5473C119.303 70.5655 118.893 70.6561 118.509 70.8191C118.13 70.9832 117.793 71.2387 117.499 71.5856C117.205 71.9363 116.986 72.3634 116.842 72.8668C116.65 73.5431 116.641 74.1476 116.814 74.6802C116.99 75.2176 117.305 75.6444 117.759 75.9605L117.447 77.0594Z" fill="black"/>
<path d="M115.153 96.5398L114.468 97.447L107.632 92.2845L108.317 91.3774L111.361 93.6761L113.851 90.3797L110.807 88.0809L111.492 87.1738L118.328 92.3362L117.643 93.2433L114.618 90.9587L112.128 94.2552L115.153 96.5398Z" fill="black"/>
<path d="M99.5985 101.927L100.6 101.307L102.394 110.272L101.184 111.021L93.9592 105.419L94.9605 104.799L97.0728 106.441L100.117 104.556L99.5985 101.927ZM100.321 105.532L97.8553 107.059L101.235 109.791L101.27 109.769L100.321 105.532Z" fill="black"/>
<path d="M86.2873 123.37L85.1699 123.579L83.5959 115.158L84.7132 114.949L86.2873 123.37Z" fill="black"/>
<path d="M67.6225 127.054L66.2575 126.799L63.9683 120.869C63.8923 120.68 63.7849 120.393 63.646 120.01C63.5025 119.629 63.3928 119.344 63.3169 119.155C63.281 119.347 63.2328 119.627 63.1723 119.993C63.1111 120.363 63.0625 120.644 63.0266 120.836L62.0587 126.014L60.9356 125.804L62.5097 117.383L63.915 117.646L66.1923 123.544C66.269 123.729 66.3759 124.007 66.5131 124.379C66.6504 124.75 66.7573 125.028 66.834 125.213C66.8706 125.018 66.9209 124.727 66.985 124.342C67.0484 123.96 67.0984 123.671 67.135 123.475L68.0792 118.424L69.1966 118.633L67.6225 127.054Z" fill="black"/>
<path d="M38.2782 110.602C38.5404 110.342 38.8455 110.131 39.1935 109.97C39.5361 109.81 39.9104 109.706 40.3164 109.659C40.717 109.613 41.1507 109.647 41.6174 109.762C42.0787 109.877 42.5336 110.074 42.9819 110.351C43.5665 110.713 44.0345 111.141 44.386 111.634C44.7355 112.131 44.9561 112.647 45.0478 113.181C45.1395 113.716 45.1285 114.26 45.0149 114.815C44.8959 115.371 44.676 115.907 44.3552 116.426C44.0344 116.944 43.6528 117.378 43.2104 117.729C42.7627 118.081 42.2791 118.335 41.7597 118.492C41.2402 118.648 40.6814 118.679 40.0831 118.584C39.4827 118.492 38.8903 118.266 38.3057 117.904C37.8607 117.628 37.4915 117.319 37.1982 116.977C36.9027 116.638 36.6886 116.282 36.5558 115.911C36.4197 115.537 36.3435 115.159 36.3275 114.777C36.3093 114.398 36.3459 114.005 36.4374 113.597L37.4088 114.199C37.322 114.807 37.3868 115.348 37.6032 115.822C37.8143 116.297 38.2171 116.719 38.8116 117.087C39.2533 117.36 39.7012 117.527 40.1553 117.588C40.606 117.646 41.028 117.607 41.4212 117.469C41.8123 117.334 42.1767 117.128 42.5142 116.85C42.8484 116.57 43.14 116.229 43.3888 115.827C43.6376 115.425 43.8129 115.012 43.9146 114.588C44.0163 114.164 44.0413 113.746 43.9895 113.332C43.9356 112.922 43.7819 112.528 43.5286 112.151C43.272 111.771 42.9211 111.444 42.4761 111.168C41.8783 110.798 41.2995 110.624 40.7398 110.645C40.1747 110.667 39.6779 110.853 39.2496 111.204L38.2782 110.602Z" fill="black"/>
<path d="M20.8207 101.604L21.5876 101.025L24.1193 104.378L26.331 102.707L23.9511 99.5558L24.7133 98.9803L27.0932 102.132L29.4218 100.373L26.8688 96.9927L27.6357 96.4136L30.8737 100.701L24.0375 105.864L20.8207 101.604Z" fill="black"/>
<path d="M13.1332 87.4267L12.7532 86.091L17.041 81.3986C17.1763 81.2464 17.3848 81.0226 17.6663 80.7273C17.9429 80.4293 18.1489 80.2041 18.2843 80.0519C18.0965 80.1053 17.8251 80.1866 17.4703 80.2957C17.1118 80.4058 16.8386 80.4876 16.6507 80.541L11.5843 81.9826L11.2716 80.8836L19.511 78.5393L19.9022 79.9144L15.6378 84.5819C15.5062 84.733 15.3047 84.9528 15.0335 85.2412C14.7622 85.5296 14.5607 85.7493 14.4291 85.9005C14.6207 85.846 14.9033 85.7615 15.2769 85.6471C15.6467 85.5338 15.9274 85.4498 16.119 85.3953L21.0615 83.989L21.3726 85.0824L13.1332 87.4267Z" fill="black"/>
<path d="M9.1505 66.4748L8.19366 66.3861L8.78349 60.0208L9.74033 60.1095L9.49813 62.7233L17.0712 63.425L16.9657 64.5627L9.3927 63.861L9.1505 66.4748Z" fill="black"/>
<path d="M18.9241 48.6621L11.2558 44.8437L12.6244 42.0953C13.0422 41.256 13.5672 40.7145 14.1992 40.4706C14.8311 40.2268 15.4636 40.2624 16.0965 40.5776C16.6175 40.837 16.978 41.2085 17.1779 41.6921C17.3761 42.1704 17.4154 42.6656 17.2957 43.1776C17.4073 43.0499 17.5277 42.9484 17.6568 42.8731C17.7877 42.7943 17.9177 42.739 18.047 42.7074C18.1779 42.6722 18.336 42.6571 18.5212 42.662C18.7046 42.6617 18.8785 42.6719 19.0427 42.6926C19.2034 42.7116 19.4105 42.7427 19.6639 42.7859C20.0938 42.8603 20.4528 42.9104 20.7411 42.9361C21.0311 42.9584 21.3316 42.9596 21.6425 42.9399L21.7474 42.9921L21.2068 44.0779C20.95 44.0765 20.5385 44.0396 19.9724 43.9672C19.4045 43.8895 19.0918 43.8473 19.0341 43.8404C18.8402 43.818 18.6733 43.8069 18.5336 43.8071C18.3955 43.8039 18.2453 43.8163 18.0829 43.8445C17.9187 43.8675 17.7773 43.9106 17.6586 43.9736C17.5364 44.035 17.416 44.1278 17.2975 44.252C17.1771 44.371 17.0725 44.5197 16.9838 44.698L16.2942 46.0827L19.4308 47.6445L18.9241 48.6621ZM15.4341 45.6544L16.275 43.9654C16.538 43.4374 16.6044 42.9709 16.4745 42.5658C16.3446 42.1608 16.0471 41.8424 15.582 41.6109C15.1939 41.4176 14.813 41.3894 14.4394 41.5263C14.0657 41.6631 13.7292 42.0323 13.4297 42.6337L12.6227 44.2545L15.4341 45.6544Z" fill="black"/>
<path d="M27.8368 32.1088L26.9665 32.9022L23.5552 24.4202L24.6074 23.461L32.7385 27.6403L31.8682 28.4337L29.4902 27.208L26.8445 29.6199L27.8368 32.1088ZM26.464 28.6982L28.6074 26.7442L24.7833 24.6802L24.753 24.7078L26.464 28.6982Z" fill="black"/>
<path d="M38.9315 12.07L39.9915 11.6593L42.7389 18.7512L46.6236 17.2463L46.9707 18.1423L42.0261 20.0579L38.9315 12.07Z" fill="black"/>
</svg>
