<svg width="78" height="77" viewBox="0 0 78 77" fill="none" xmlns="http://www.w3.org/2000/svg">
<rect x="0.5" y="0.5" width="77" height="76" rx="15.5" fill="white" fill-opacity="0.12" stroke="#3E3E3E"/>
<rect x="6" y="5" width="67" height="67" rx="12" fill="#222222"/>
<circle cx="16" cy="14" r="1" fill="#B6B6B6"/>
<circle cx="16" cy="14" r="1" fill="#E0E0E0"/>
<circle cx="16" cy="63" r="1" fill="#B6B6B6"/>
<circle cx="16" cy="63" r="1" fill="#E0E0E0"/>
<circle cx="64" cy="63" r="1" fill="#B6B6B6"/>
<circle cx="64" cy="63" r="1" fill="#E0E0E0"/>
<circle cx="64" cy="14" r="1" fill="#B6B6B6"/>
<circle cx="64" cy="14" r="1" fill="#E0E0E0"/>
<path d="M35.125 31.2083H46.4271C49.4993 31.2083 51.0354 31.2083 52.1389 31.9457C52.6167 32.2649 53.0268 32.675 53.346 33.1527C54.0833 34.2562 54.0833 35.7923 54.0833 38.8646C54.0833 43.9851 54.0833 46.5452 52.8544 48.3844C52.3225 49.1805 51.6389 49.8642 50.8428 50.3961C49.0035 51.625 46.4434 51.625 41.3229 51.625H39.5C32.6253 51.625 29.188 51.625 27.0523 49.4893C24.9167 47.3537 24.9167 43.9163 24.9167 37.0417V32.5854C24.9167 29.9364 24.9167 28.6119 25.4713 27.618C25.8666 26.9096 26.4512 26.325 27.1597 25.9296C28.1535 25.375 29.478 25.375 32.127 25.375C33.8242 25.375 34.6728 25.375 35.4156 25.6536C37.1115 26.2896 37.8109 27.8302 38.5763 29.3608L39.5 31.2083" fill="#F9FAFB"/>
<path d="M35.125 31.2083H46.4271C49.4993 31.2083 51.0354 31.2083 52.1389 31.9457C52.6167 32.2649 53.0268 32.675 53.346 33.1527C54.0833 34.2562 54.0833 35.7923 54.0833 38.8646C54.0833 43.9851 54.0833 46.5452 52.8544 48.3844C52.3225 49.1805 51.6389 49.8642 50.8428 50.3961C49.0035 51.625 46.4434 51.625 41.3229 51.625H39.5C32.6253 51.625 29.188 51.625 27.0523 49.4893C24.9167 47.3537 24.9167 43.9163 24.9167 37.0417V32.5854C24.9167 29.9364 24.9167 28.6119 25.4713 27.618C25.8666 26.9096 26.4512 26.325 27.1597 25.9296C28.1535 25.375 29.478 25.375 32.1271 25.375C33.8242 25.375 34.6728 25.375 35.4156 25.6536C37.1115 26.2896 37.8109 27.8302 38.5763 29.3608L39.5 31.2083" stroke="#D7DDE7" stroke-linecap="round"/>
<path d="M44.6042 38.5L45.9457 39.6563C46.5096 40.1424 46.7917 40.3855 46.7917 40.6875C46.7917 40.9895 46.5096 41.2326 45.9457 41.7187L44.6042 42.875" stroke="#2F44FF" stroke-opacity="0.47" stroke-linecap="round" stroke-linejoin="round"/>
<path d="M34.3958 38.5L33.0543 39.6563C32.4903 40.1424 32.2083 40.3855 32.2083 40.6875C32.2083 40.9895 32.4903 41.2326 33.0543 41.7187L34.3958 42.875" stroke="#2F44FF" stroke-opacity="0.47" stroke-linecap="round" stroke-linejoin="round"/>
<path d="M40.9583 37.0417L38.0417 44.3333" stroke="#2F44FF" stroke-opacity="0.47" stroke-linecap="round" stroke-linejoin="round"/>
</svg>
