<svg width="111" height="111" viewBox="0 0 111 111" fill="none" xmlns="http://www.w3.org/2000/svg">
<g id="Group 2234">
<g id="Group 2234_2">
<circle id="Ellipse 3" cx="55.5" cy="55.5" r="55.5" fill="#474747"/>
<circle id="Ellipse 2" cx="56" cy="56" r="33" fill="white"/>
<g id="Layer_1-2">
<path id="Vector" d="M72.6748 54.3422L60.8696 47.4345C60.6074 47.2817 60.284 47.2817 60.0218 47.4345L58.2771 48.4613C57.2422 49.0711 57.2457 50.56 58.2841 51.1646L60.4133 52.4034C62.4097 53.5656 62.4062 56.4357 60.4064 57.5928L47.4334 65.0981C47.1764 65.2458 47.019 65.5186 47.019 65.8139V69.1705C47.019 69.8098 47.7166 70.2077 48.2725 69.8862L72.6714 55.7738C73.222 55.4559 73.2238 54.6654 72.6748 54.344V54.3422Z" fill="#E22829"/>
<path id="Vector_2" d="M54.6918 54.4322C55.2373 54.8161 55.2058 55.6309 54.6289 55.9697L48.3985 59.6303C47.7814 59.9934 47 59.5504 47 58.8381V40.9226C47 40.2103 47.7797 39.7673 48.3968 40.1286L54.6918 43.8118C55.3089 44.1732 55.2985 45.0609 54.6744 45.4084C54.6744 45.4084 47.6643 49.4877 54.6918 54.4304V54.4322Z" fill="#E22829"/>
</g>
</g>
</g>
</svg>
