<svg width="18" height="18" viewBox="0 0 18 18" fill="none" xmlns="http://www.w3.org/2000/svg">
<g id="Frame">
<path id="Vector" d="M8.85097 4.86712L9.96517 3.75294C11.2197 2.4984 12.8621 1.97803 14.6003 1.893C15.2764 1.85992 15.6145 1.84338 15.8855 2.11446C16.1566 2.38554 16.1401 2.72358 16.107 3.39967C16.0219 5.13788 15.5016 6.78032 14.2471 8.03483L13.1329 9.14903C12.2153 10.0666 11.9545 10.3275 12.1471 11.3228C12.3372 12.083 12.5212 12.8192 11.9683 13.3721C11.2978 14.0426 10.6861 14.0426 10.0155 13.3721L4.62793 7.9845C3.95737 7.31391 3.95734 6.70223 4.62793 6.03165C5.18075 5.47882 5.91697 5.66283 6.67723 5.85292C7.6725 6.04555 7.93342 5.78467 8.85097 4.86712Z" stroke="black" stroke-linejoin="round"/>
<path id="Vector_2" d="M12.7471 5.25H12.7538" stroke="black" stroke-width="2" stroke-linecap="round" stroke-linejoin="round"/>
<path id="Vector_3" d="M1.875 16.125L5.625 12.375" stroke="black" stroke-linecap="round"/>
<path id="Vector_4" d="M6.375 16.125L7.875 14.625" stroke="black" stroke-linecap="round"/>
<path id="Vector_5" d="M1.875 11.625L3.375 10.125" stroke="black" stroke-linecap="round"/>
</g>
</svg>
