<svg width="187" height="28" viewBox="0 0 187 28" fill="none" xmlns="http://www.w3.org/2000/svg">
<g clip-path="url(#clip0_1_2114)">
<path fill-rule="evenodd" clip-rule="evenodd" d="M13.9436 4.12617V0C6.24298 0 0 6.26516 0 13.9931C0 21.721 6.24298 27.9862 13.9436 27.9862V23.86C8.5119 23.86 4.11157 19.4441 4.11157 13.9931C4.11157 8.54214 8.5119 4.12617 13.9436 4.12617ZM13.9436 8.27994C10.7946 8.27994 8.23688 10.8467 8.23688 14.0069C8.23688 17.1671 10.7946 19.7339 13.9436 19.7339V8.27994Z" fill="#101010"/>
<path fill-rule="evenodd" clip-rule="evenodd" d="M13.9435 8.27994V11.9369H27.7359C27.5433 10.6535 27.1858 9.42533 26.677 8.27994H13.9435ZM23.8306 4.12617C21.3141 1.57319 17.8076 0 13.9435 0V4.12617H23.8306ZM13.9435 28V23.8738H23.8306C21.3004 26.4268 17.8076 28 13.9435 28ZM13.9435 19.7201H26.677C27.1858 18.5747 27.5571 17.3465 27.7359 16.0631H13.9435V19.7201Z" fill="#2F44FF"/>
<path d="M186.877 20.2169H184.787V7.60376H186.877V20.2169Z" fill="#101010"/>
<path d="M174.075 17.6086C174.075 16.7254 174.363 16.0492 174.941 15.5524C175.532 15.0556 176.33 14.8072 177.347 14.8072H179.864V14.2138C179.864 13.1788 179.314 12.6682 178.227 12.6682C177.141 12.6682 176.577 13.1236 176.495 14.0344H174.432C174.501 13.0822 174.886 12.337 175.573 11.8126C176.261 11.2744 177.182 11.0122 178.337 11.0122C179.493 11.0122 179.644 11.1226 180.153 11.3296C180.661 11.5366 181.046 11.8264 181.294 12.1852C181.748 12.8338 181.981 13.5238 181.981 14.2552V18.7264H183.164V20.2305H181.431C180.964 20.2305 180.62 20.1477 180.414 19.9821C180.208 19.8165 180.07 19.5543 180.001 19.1955V18.8229H179.864C179.671 19.3059 179.314 19.6785 178.777 19.9683C178.255 20.2581 177.65 20.3961 176.962 20.3961C176.275 20.3961 175.367 20.1477 174.858 19.6509C174.336 19.1541 174.075 18.478 174.075 17.6224V17.6086ZM176.192 17.236V17.65C176.192 18.0088 176.316 18.2848 176.577 18.478C176.839 18.6712 177.196 18.7678 177.636 18.7678C178.31 18.7678 178.846 18.5746 179.259 18.1744C179.658 17.7742 179.864 17.236 179.864 16.5736V16.1872H177.691C177.224 16.1872 176.852 16.2838 176.591 16.4908C176.33 16.684 176.206 16.9462 176.206 17.2636L176.192 17.236Z" fill="#101010"/>
<path d="M170.596 11.178H173.69V12.8892H170.884V20.2169H168.78V12.9858C168.78 12.5166 168.877 12.1164 169.069 11.7852C169.303 11.385 169.812 11.178 170.609 11.178H170.596Z" fill="#101010"/>
<path d="M166.91 12.8891H165.081V18.5194H166.91V20.2168H164.696C163.555 20.2168 162.978 19.651 162.978 18.5194V12.8891H161.355V11.1779H162.978V8.26611H165.068V11.1779H166.897V12.8891H166.91Z" fill="#101010"/>
<path d="M153.971 20.2167H151.867V11.1778H153.723L153.971 12.8476H154.108C154.397 12.2542 154.796 11.8126 155.318 11.4952C155.841 11.1778 156.432 11.0122 157.106 11.0122C158.11 11.0122 158.88 11.3434 159.416 12.0058C159.952 12.6682 160.227 13.579 160.227 14.752V20.2305H158.096V14.9728C158.096 13.5238 157.477 12.8062 156.239 12.8062C155.002 12.8062 155.002 13.0546 154.589 13.5514C154.177 14.0344 153.971 14.683 153.971 15.4834V20.2443V20.2167Z" fill="#101010"/>
<path d="M141.471 15.6767C141.471 14.2277 141.856 13.0823 142.64 12.2543C143.424 11.4263 144.482 10.9985 145.816 10.9985C147.15 10.9985 148.071 11.3711 148.828 12.1025C149.598 12.8339 149.969 13.8551 149.969 15.1385C149.969 16.4219 149.941 15.8975 149.9 16.1597H143.644V16.6565C143.644 17.2775 143.836 17.7743 144.235 18.1607C144.634 18.5333 145.17 18.7265 145.83 18.7265C146.49 18.7265 146.806 18.6161 147.164 18.3815C147.535 18.1469 147.783 17.8295 147.92 17.4293H150.01C149.818 18.3263 149.35 19.0439 148.594 19.5821C147.824 20.1203 146.889 20.3825 145.816 20.3825C144.744 20.3825 143.382 19.9685 142.626 19.1267C141.856 18.2711 141.471 17.1257 141.471 15.6767ZM143.63 14.5451V14.7245H147.851V14.4761C147.851 13.9241 147.659 13.4825 147.274 13.1375C146.903 12.7925 146.394 12.6269 145.775 12.6269C145.156 12.6269 144.62 12.8063 144.221 13.1513C143.822 13.4963 143.63 13.9655 143.63 14.5313V14.5451Z" fill="#101010"/>
<path d="M134.485 20.3825C132.684 20.3825 131.268 19.8167 130.25 18.6989C129.232 17.5535 128.724 16.0079 128.724 14.0207C128.724 12.0335 129.232 10.4327 130.264 9.30115C131.295 8.16956 132.753 7.60376 134.623 7.60376C136.493 7.60376 137.456 8.01776 138.459 8.83195C139.463 9.63235 140.027 10.7087 140.165 12.0887H137.841C137.703 11.3159 137.346 10.7087 136.768 10.2671C136.19 9.82554 135.448 9.60475 134.554 9.60475C133.66 9.60475 132.643 9.90834 132.01 10.5293C131.378 11.1503 131.061 11.9783 131.061 13.0409V15.0695C131.061 16.0493 131.378 16.8635 131.996 17.4845C132.629 18.1055 133.468 18.4091 134.513 18.4091C135.558 18.4091 136.094 18.1883 136.685 17.7329C137.277 17.2775 137.662 16.6703 137.841 15.8975H140.165C139.972 17.2775 139.367 18.3677 138.349 19.1681C137.318 19.9685 136.039 20.3825 134.485 20.3825Z" fill="#101010"/>
<path d="M120.679 20.2167H118.575V11.1778H120.432L120.679 12.8476H120.817C121.106 12.2542 121.504 11.8126 122.027 11.4952C122.549 11.1778 123.141 11.0122 123.814 11.0122C124.818 11.0122 125.588 11.3434 126.125 12.0058C126.661 12.6682 126.936 13.579 126.936 14.752V20.2305H124.805V14.9728C124.805 13.5238 124.186 12.8062 122.948 12.8062C121.711 12.8062 121.711 13.0546 121.298 13.5514C120.885 14.0344 120.679 14.683 120.679 15.4834V20.2443V20.2167Z" fill="#101010"/>
<path d="M116.1 9.89441H114.01V7.61743H116.1V9.89441ZM116.1 20.2167H114.01V11.1778H116.1V20.2167Z" fill="#101010"/>
<path d="M103.312 17.6086C103.312 16.7254 103.6 16.0492 104.178 15.5524C104.769 15.0556 105.567 14.8072 106.584 14.8072H109.101V14.2138C109.101 13.1788 108.551 12.6682 107.464 12.6682C106.378 12.6682 105.814 13.1236 105.732 14.0344H103.669C103.738 13.0822 104.123 12.337 104.811 11.8126C105.498 11.2744 106.419 11.0122 107.575 11.0122C108.73 11.0122 108.881 11.1226 109.39 11.3296C109.898 11.5366 110.283 11.8264 110.531 12.1852C110.985 12.8338 111.219 13.5238 111.219 14.2552V18.7264H112.401V20.2305H110.668C110.201 20.2305 109.857 20.1477 109.651 19.9821C109.445 19.8165 109.307 19.5543 109.238 19.1955V18.8229H109.101C108.908 19.3059 108.551 19.6785 108.015 19.9683C107.492 20.2581 106.887 20.3961 106.199 20.3961C105.512 20.3961 104.604 20.1477 104.095 19.6509C103.573 19.1541 103.312 18.478 103.312 17.6224V17.6086ZM105.429 17.236V17.65C105.429 18.0088 105.553 18.2848 105.814 18.478C106.076 18.6712 106.433 18.7678 106.873 18.7678C107.547 18.7678 108.083 18.5746 108.496 18.1744C108.895 17.7742 109.101 17.236 109.101 16.5736V16.1872H106.928C106.461 16.1872 106.089 16.2838 105.828 16.4908C105.567 16.684 105.443 16.9462 105.443 17.2636L105.429 17.236Z" fill="#101010"/>
<path d="M95.3773 20.2169H93.2734V7.60376H95.3773V12.8063H95.5148C95.7898 12.2267 96.1886 11.7851 96.6974 11.4677C97.22 11.1503 97.825 10.9985 98.4988 10.9985C99.5026 10.9985 100.273 11.3297 100.809 11.9921C101.345 12.6545 101.62 13.5653 101.62 14.7245V20.2169H99.4889V14.9453C99.4889 13.4825 98.8701 12.7511 97.6325 12.7511C96.3949 12.7511 96.3949 12.9995 95.9824 13.4825C95.5698 13.9655 95.3636 14.6141 95.3636 15.4145V20.2307L95.3773 20.2169Z" fill="#101010"/>
<path d="M89.3819 16.9876H91.472C91.3483 18.0502 90.9082 18.8782 90.1657 19.4854C89.4231 20.0788 88.4743 20.3824 87.3192 20.3824C86.1641 20.3824 84.899 19.9684 84.1152 19.1266C83.3451 18.2848 82.9601 17.1394 82.9601 15.7042C82.9601 14.269 83.3589 13.0684 84.1427 12.2404C84.9403 11.4124 86.0128 10.9846 87.3605 10.9846C88.7081 10.9846 89.4094 11.2882 90.1382 11.8816C90.8807 12.475 91.307 13.2892 91.4445 14.2966H89.3544C89.2581 13.786 89.0243 13.3996 88.6531 13.1374C88.2818 12.8614 87.828 12.7234 87.2917 12.7234C86.7554 12.7234 86.0816 12.9304 85.6828 13.3444C85.284 13.7584 85.0915 14.3104 85.0915 15.0004V16.4494C85.0915 17.1256 85.284 17.6638 85.6828 18.0502C86.0816 18.4366 86.6179 18.6298 87.2779 18.6298C87.938 18.6298 88.2818 18.478 88.6531 18.1882C89.0243 17.8984 89.2581 17.4844 89.3544 16.9738L89.3819 16.9876Z" fill="#101010"/>
<path d="M82.6301 20.2169H80.2099L77.5697 16.1873L76.2496 17.5535V20.2169H74.1182V7.60376H76.2496V14.9177L79.8249 11.1641H82.4513L79.0273 14.6693L82.6163 20.2031L82.6301 20.2169Z" fill="#101010"/>
<path d="M70.2404 16.9876H72.3306C72.2068 18.0502 71.7668 18.8782 71.0242 19.4854C70.2817 20.0788 69.3328 20.3824 68.1777 20.3824C67.0227 20.3824 65.7576 19.9684 64.9738 19.1266C64.2037 18.2848 63.8187 17.1394 63.8187 15.7042C63.8187 14.269 64.2174 13.0684 65.0013 12.2404C65.7988 11.4124 66.8714 10.9846 68.219 10.9846C69.5666 10.9846 70.2679 11.2882 70.9967 11.8816C71.7393 12.475 72.1656 13.2892 72.3031 14.2966H70.2129C70.1166 13.786 69.8829 13.3996 69.5116 13.1374C69.1403 12.8614 68.6865 12.7234 68.1502 12.7234C67.614 12.7234 66.9402 12.9304 66.5414 13.3444C66.1426 13.7584 65.9501 14.3104 65.9501 15.0004V16.4494C65.9501 17.1256 66.1426 17.6638 66.5414 18.0502C66.9402 18.4366 67.4764 18.6298 68.1365 18.6298C68.7965 18.6298 69.1403 18.478 69.5116 18.1882C69.8829 17.8984 70.1166 17.4844 70.2129 16.9738L70.2404 16.9876Z" fill="#101010"/>
<path d="M53.5741 15.6905C53.5741 14.2415 53.9729 13.0961 54.7567 12.2681C55.568 11.4263 56.6406 10.9985 57.9882 10.9985C59.3358 10.9985 60.3946 11.4125 61.2059 12.2543C62.031 13.0961 62.4298 14.2415 62.4298 15.6905C62.4298 17.1395 62.031 18.2573 61.2334 19.1129C60.4496 19.9685 59.377 20.3825 57.9882 20.3825C56.5993 20.3825 55.5542 19.9685 54.7567 19.1267C53.9591 18.2987 53.5741 17.1533 53.5741 15.6905ZM55.7193 15.0143V16.4357C55.7193 17.1257 55.9255 17.6777 56.3381 18.0641C56.7506 18.4643 57.3006 18.6575 57.9882 18.6575C58.6757 18.6575 59.2395 18.4643 59.6521 18.0779C60.0646 17.6777 60.2709 17.1395 60.2709 16.4357V15.0143C60.2709 14.3243 60.0646 13.7723 59.6383 13.3583C59.2258 12.9443 58.6757 12.7373 57.9882 12.7373C57.3006 12.7373 56.7368 12.9443 56.3243 13.3583C55.9118 13.7723 55.7055 14.3243 55.7055 15.0143H55.7193Z" fill="#101010"/>
<path d="M51.814 20.2169H49.7238V7.60376H51.814V20.2169Z" fill="#101010"/>
<path d="M43.8521 20.2169H37.7879V7.7832H43.9484C45.0347 7.7832 45.8873 8.073 46.4923 8.6388C47.1111 9.20459 47.4274 9.97739 47.4274 10.9434C47.4274 11.9094 47.2761 12.1992 46.9599 12.6822C46.6436 13.1652 46.2173 13.5102 45.6673 13.731V13.8828C46.3411 14.0484 46.8636 14.3934 47.2211 14.9178C47.5787 15.4421 47.7574 16.0907 47.7574 16.8635C47.7574 17.6363 47.3999 18.6713 46.6986 19.2923C45.9973 19.9133 45.0485 20.2169 43.8521 20.2169ZM39.9606 9.52199V13.0272H43.5496C44.0446 13.0272 44.4297 12.903 44.7184 12.6546C45.0072 12.4062 45.1447 12.075 45.1447 11.661V10.8744C45.1447 10.4604 45.0072 10.1292 44.7184 9.89459C44.4297 9.64619 44.0446 9.52199 43.5358 9.52199H39.9881H39.9606ZM39.9606 14.7384V18.4781H43.4671C44.0859 18.4781 44.5534 18.3539 44.8972 18.0917C45.241 17.8295 45.406 17.4707 45.406 16.9877V16.2563C45.406 15.249 44.8284 14.7384 43.6734 14.7384H39.9606Z" fill="#101010"/>
</g>
<defs>
<clipPath id="clip0_1_2114">
<rect width="187" height="28" fill="white"/>
</clipPath>
</defs>
</svg>
