<svg width="313" height="309" viewBox="0 0 313 309" fill="none" xmlns="http://www.w3.org/2000/svg">
<path d="M201.202 155.101C201.202 180.562 180.562 201.202 155.101 201.202C129.64 201.202 109 180.562 109 155.101C109 129.64 129.64 109 155.101 109C180.562 109 201.202 129.64 201.202 155.101Z" fill="#2F44FF" fill-opacity="0.2"/>
<path d="M200.702 155.101C200.702 180.285 180.285 200.702 155.101 200.702C129.916 200.702 109.5 180.285 109.5 155.101C109.5 129.916 129.916 109.5 155.101 109.5C180.285 109.5 200.702 129.916 200.702 155.101Z" stroke="#2F44FF" stroke-opacity="0.06"/>
<path d="M193 155C193 175.987 175.987 193 155 193C134.013 193 117 175.987 117 155C117 134.013 134.013 117 155 117C175.987 117 193 134.013 193 155Z" fill="#2F44FF" fill-opacity="0.3"/>
<circle cx="154.5" cy="154.5" r="97.5161" stroke="#242424"/>
<circle cx="154.5" cy="154.5" r="154" stroke="#242424"/>
<circle cx="223.5" cy="222.5" r="4.5" fill="#D9D9D9"/>
<circle cx="219.5" cy="83.5" r="4.5" fill="#D9D9D9"/>
<circle cx="57.5" cy="164.5" r="4.5" fill="#D9D9D9"/>
<circle cx="72.5" cy="24.5" r="4.5" fill="#D9D9D9"/>
<circle cx="29.5" cy="245.5" r="4.5" fill="#D9D9D9"/>
<circle cx="308.5" cy="138.5" r="4.5" fill="#D9D9D9"/>
<path d="M159.13 150.797H165.363C165.66 150.798 165.951 150.872 166.206 151.012C166.46 151.152 166.668 151.353 166.807 151.592C166.947 151.831 167.013 152.1 166.998 152.371C166.983 152.642 166.888 152.904 166.723 153.129L151.866 176.286C151.665 176.585 151.355 176.81 150.991 176.922C150.627 177.034 150.231 177.025 149.873 176.898C149.515 176.77 149.217 176.532 149.033 176.224C148.848 175.916 148.788 175.559 148.862 175.215L151.055 161.005L143.66 161.118C143.446 161.122 143.233 161.087 143.034 161.015C142.834 160.943 142.652 160.836 142.498 160.701C142.344 160.565 142.22 160.402 142.135 160.223C142.05 160.044 142.004 159.851 142 159.655C141.999 159.381 142.077 159.112 142.227 158.874L156.858 135.723C157.052 135.429 157.351 135.205 157.705 135.088C158.059 134.972 158.446 134.971 158.802 135.084C159.157 135.197 159.458 135.419 159.655 135.711C159.852 136.004 159.933 136.349 159.884 136.69L159.13 150.797Z" fill="#D9D9D9"/>
</svg>
