<svg xmlns="http://www.w3.org/2000/svg" width="149" height="171" viewBox="0 0 149 171" fill="none">
  <g filter="url(#filter0_d_109_273)">
    <path d="M142.78 77.5243L78.9695 40.1862C77.5521 39.3598 75.804 39.3598 74.3866 40.1862L64.9563 45.7362C59.3623 49.0324 59.3812 57.0804 64.9941 60.3484L76.5033 67.0441C87.2943 73.3266 87.2754 88.8403 76.4654 95.0946L6.3425 135.663C4.95346 136.461 4.10303 137.936 4.10303 139.532V157.675C4.10303 161.131 7.87328 163.282 10.8781 161.544L142.761 85.2624C145.738 83.5438 145.747 79.271 142.78 77.5337V77.5243Z" fill="#E22829"/>
    <path d="M45.5767 78.0103C48.5249 80.0856 48.3548 84.49 45.2366 86.3212L11.5594 106.108C8.22382 108.07 4 105.676 4 101.825V4.98688C4 1.13662 8.21437 -1.25805 11.55 0.695253L45.5767 20.6039C48.9123 22.5572 48.8556 27.3559 45.4822 29.2341C45.4822 29.2341 7.59072 51.2838 45.5767 78.0009V78.0103Z" fill="#E22829"/>
  </g>
  <defs>
    <filter id="filter0_d_109_273" x="0" y="0" width="149" height="170.159" filterUnits="userSpaceOnUse" color-interpolation-filters="sRGB">
      <feFlood flood-opacity="0" result="BackgroundImageFix"/>
      <feColorMatrix in="SourceAlpha" type="matrix" values="0 0 0 0 0 0 0 0 0 0 0 0 0 0 0 0 0 0 127 0" result="hardAlpha"/>
      <feOffset dy="4"/>
      <feGaussianBlur stdDeviation="2"/>
      <feComposite in2="hardAlpha" operator="out"/>
      <feColorMatrix type="matrix" values="0 0 0 0 0 0 0 0 0 0 0 0 0 0 0 0 0 0 0.25 0"/>
      <feBlend mode="normal" in2="BackgroundImageFix" result="effect1_dropShadow_109_273"/>
      <feBlend mode="normal" in="SourceGraphic" in2="effect1_dropShadow_109_273" result="shape"/>
    </filter>
  </defs>
</svg>