<svg width="111" height="111" viewBox="0 0 111 111" fill="none" xmlns="http://www.w3.org/2000/svg">
<circle cx="55.5" cy="55.5" r="55.5" fill="#E7E7E7"/>
<circle cx="56" cy="56" r="33" fill="white"/>
<path d="M72.6748 54.3422L60.8696 47.4345C60.6074 47.2817 60.284 47.2817 60.0218 47.4345L58.2771 48.4613C57.2422 49.0711 57.2457 50.56 58.2841 51.1646L60.4133 52.4034C62.4097 53.5656 62.4062 56.4357 60.4064 57.5928L47.4334 65.0981C47.1764 65.2458 47.019 65.5186 47.019 65.8139V69.1705C47.019 69.8098 47.7166 70.2077 48.2725 69.8862L72.6714 55.7738C73.222 55.4559 73.2238 54.6654 72.6748 54.344V54.3422Z" fill="#E22829"/>
<path d="M54.6918 54.4322C55.2373 54.8161 55.2058 55.6309 54.6289 55.9697L48.3985 59.6303C47.7814 59.9934 47 59.5504 47 58.8381V40.9226C47 40.2103 47.7797 39.7673 48.3968 40.1286L54.6918 43.8118C55.3089 44.1732 55.2985 45.0609 54.6744 45.4084C54.6744 45.4084 47.6643 49.4877 54.6918 54.4304V54.4322Z" fill="#E22829"/>
<path d="M41.4227 102.282C41.3691 102.713 41.4902 103.088 41.7861 103.407C42.0821 103.726 42.4866 103.948 42.9997 104.075C43.3748 104.167 43.718 104.188 44.0293 104.136C44.3378 104.083 44.5968 103.97 44.8064 103.796C45.0132 103.622 45.1499 103.399 45.2166 103.129C45.2723 102.903 45.2665 102.695 45.199 102.506C45.1281 102.319 45.0204 102.15 44.8759 102.001C44.7307 101.854 44.5728 101.723 44.4023 101.607C44.231 101.495 44.0719 101.399 43.9248 101.318L43.1213 100.875C42.915 100.762 42.6892 100.622 42.444 100.453C42.1961 100.284 41.9698 100.08 41.765 99.8425C41.5568 99.6069 41.405 99.3324 41.3096 99.0193C41.2142 98.7061 41.2154 98.3509 41.3133 97.9537C41.4262 97.4958 41.6481 97.1116 41.9792 96.8011C42.3075 96.49 42.7275 96.2819 43.2391 96.1768C43.7479 96.0711 44.3278 96.0985 44.9788 96.2589C45.5856 96.4085 46.087 96.6359 46.4828 96.9412C46.8759 97.2458 47.1561 97.6046 47.3235 98.0174C47.4882 98.4296 47.53 98.8715 47.4489 99.3431L46.3896 99.082C46.4409 98.7552 46.3986 98.4639 46.2627 98.208C46.1234 97.9542 45.9215 97.7406 45.657 97.5672C45.3891 97.3958 45.0869 97.2687 44.7504 97.1857C44.3587 97.0892 43.9913 97.0659 43.6484 97.116C43.3047 97.1688 43.0137 97.2872 42.7752 97.4713C42.536 97.6582 42.3784 97.906 42.3022 98.215C42.2329 98.4963 42.2551 98.7446 42.3688 98.9599C42.4825 99.1752 42.654 99.3696 42.8833 99.5432C43.1127 99.7168 43.3661 99.8816 43.6436 100.038L44.6128 100.593C45.2279 100.946 45.6851 101.347 45.9842 101.795C46.2833 102.244 46.3626 102.753 46.2218 103.324C46.1049 103.799 45.8746 104.181 45.5311 104.471C45.1841 104.763 44.7686 104.953 44.2845 105.041C43.7969 105.132 43.2828 105.11 42.7422 104.977C42.1961 104.842 41.7347 104.625 41.3582 104.324C40.981 104.026 40.7098 103.679 40.5444 103.281C40.3764 102.883 40.3381 102.468 40.4297 102.037L41.4227 102.282Z" fill="black"/>
<path d="M34.7286 101.169L34.293 101.999L28.4972 98.9574L28.9329 98.1273L31.3629 99.4026L34.983 92.5051L35.9188 92.9962L32.2987 99.8937L34.7286 101.169Z" fill="black"/>
<path d="M29.2043 88.7792L23.417 95.3116L21.2098 93.3562C20.6994 92.904 20.3578 92.4457 20.1848 91.9813C20.0099 91.5189 19.9775 91.067 20.0877 90.6257C20.1978 90.1843 20.4234 89.7712 20.7644 89.3863C21.1053 89.0014 21.4864 88.7298 21.9075 88.5715C22.3286 88.4132 22.7772 88.3931 23.2532 88.5113C23.7274 88.6315 24.2175 88.9158 24.7236 89.3642L26.5098 90.9466L25.8769 91.6611L24.1162 90.1013C23.7674 89.7923 23.4415 89.5947 23.1384 89.5083C22.8333 89.4201 22.5499 89.4272 22.2884 89.5296C22.023 89.6322 21.7744 89.8142 21.5426 90.0758C21.3109 90.3373 21.1573 90.6093 21.0818 90.8916C21.0063 91.1739 21.0289 91.4633 21.1494 91.7599C21.2681 92.0586 21.504 92.3643 21.857 92.6771L23.2477 93.9091L28.4132 88.0784L29.2043 88.7792ZM23.5297 88.9896L24.5218 84.6309L25.4405 85.4447L24.4228 89.7808L23.5297 88.9896Z" fill="black"/>
<path d="M21.9905 81.5614L14.8081 86.519L11.8161 82.1843L12.5877 81.6518L14.9793 85.1167L17.4062 83.4416L15.1695 80.2011L15.941 79.6685L18.1778 82.909L20.6187 81.2242L18.1882 77.7031L18.9598 77.1706L21.9905 81.5614Z" fill="black"/>
<path d="M16.688 72.7395L17.0809 73.7754L7.78437 73.8739L7.39753 72.8538L14.4213 66.7628L14.8142 67.7988L8.86982 72.8424L8.894 72.9061L16.688 72.7395ZM13.3554 73.5658L11.7717 69.3901L12.6483 69.0577L14.2319 73.2334L13.3554 73.5658Z" fill="black"/>
<path d="M5.22592 65.6944L5.07388 64.4422L11.9079 60.6248L11.8955 60.5232L4.34655 58.4522L4.19451 57.2L12.8581 56.148L12.9773 57.1295L6.39498 57.9287L6.40525 58.0133L13.3163 59.9215L13.4314 60.869L7.17778 64.3757L7.18806 64.4603L13.7704 63.661L13.8896 64.6425L5.22592 65.6944Z" fill="black"/>
<path d="M11.539 34.9908L11.1643 35.979C10.8579 35.9296 10.5694 35.9372 10.2988 36.0017C10.0293 36.0635 9.78217 36.1704 9.5575 36.3221C9.33117 36.4703 9.13348 36.6551 8.9644 36.8765C8.79533 37.098 8.65942 37.3442 8.55666 37.6152C8.36929 38.1093 8.32439 38.6042 8.42196 39.1C8.52054 39.5931 8.76805 40.0501 9.1645 40.4708C9.56195 40.889 10.114 41.232 10.8205 41.5C11.5271 41.7679 12.1678 41.8772 12.7425 41.8278C13.3183 41.7758 13.8066 41.5979 14.2074 41.2941C14.6092 40.9877 14.9038 40.5875 15.0912 40.0934C15.1939 39.8224 15.2554 39.548 15.2758 39.2701C15.2961 38.9922 15.272 38.7233 15.2035 38.4634C15.1333 38.1998 15.0178 37.9554 14.857 37.7304C14.6946 37.5017 14.4837 37.3047 14.2243 37.1395L14.5991 36.1514C14.9879 36.3839 15.3097 36.6609 15.5646 36.9824C15.8194 37.3039 16.007 37.6545 16.1273 38.0344C16.2449 38.4132 16.2945 38.8072 16.276 39.2165C16.2585 39.6231 16.1717 40.0322 16.0155 40.444C15.7516 41.1399 15.3469 41.6944 14.8014 42.1073C14.2558 42.5202 13.6107 42.7632 12.866 42.8363C12.1212 42.9093 11.3185 42.7826 10.4579 42.4562C9.59723 42.1298 8.9124 41.6924 8.40338 41.1438C7.89436 40.5953 7.5726 39.9856 7.43811 39.3148C7.30361 38.644 7.36833 37.9606 7.63227 37.2646C7.78842 36.8529 7.99476 36.4891 8.2513 36.1731C8.50885 35.8546 8.80858 35.593 9.15049 35.3884C9.48975 35.1829 9.86134 35.0443 10.2653 34.9726C10.6665 34.9 11.0911 34.906 11.539 34.9908Z" fill="black"/>
<path d="M18.6315 34.38L11.4491 29.4223L12.0494 28.5526L15.2478 30.7603L17.8913 26.9306L14.6928 24.7229L15.2932 23.8532L22.4756 28.8108L21.8752 29.6806L18.6628 27.4632L16.0194 31.2928L19.2318 33.5102L18.6315 34.38Z" fill="black"/>
<path d="M25.4857 25.5894L24.6564 26.3242L21.2678 17.6667L22.0844 16.9433L30.2702 21.3507L29.4409 22.0854L22.6172 18.3158L22.5661 18.361L25.4857 25.5894ZM23.5313 22.7664L26.8741 19.805L27.4957 20.5067L24.153 23.4682L23.5313 22.7664Z" fill="black"/>
<path d="M32.2647 10.14L36.3205 17.8676L35.3847 18.3587L31.329 10.6311L32.2647 10.14Z" fill="black"/>
<path d="M46.6452 5.25828L48.7337 13.732L47.7407 13.9767L41.4834 8.46166L41.4006 8.48205L43.0405 15.1352L42.0144 15.3881L39.9258 6.91445L40.9188 6.66969L47.1968 12.1972L47.2795 12.1768L45.6356 5.50711L46.6452 5.25828Z" fill="black"/>
<path d="M69.0592 8.79261C69.1129 8.3611 68.9917 7.98599 68.6958 7.66726C68.3998 7.34853 67.9953 7.12594 67.4823 6.99949C67.1071 6.90702 66.7639 6.8868 66.4527 6.93882C66.1442 6.99152 65.8851 7.10469 65.6755 7.27833C65.4687 7.45265 65.332 7.67497 65.2654 7.94529C65.2096 8.17148 65.2155 8.3792 65.2829 8.56846C65.3538 8.75564 65.4615 8.92409 65.606 9.07382C65.7512 9.22079 65.9091 9.35187 66.0797 9.46706C66.2509 9.57949 66.4101 9.67577 66.5571 9.7559L67.3606 10.1997C67.567 10.312 67.7928 10.4525 68.0379 10.6212C68.2858 10.7906 68.5122 10.9941 68.7169 11.2319C68.9251 11.4675 69.0769 11.7419 69.1723 12.0551C69.2678 12.3683 69.2665 12.7235 69.1686 13.1207C69.0558 13.5786 68.8338 13.9628 68.5027 14.2732C68.1744 14.5844 67.7544 14.7925 67.2428 14.8975C66.734 15.0033 66.1541 14.9759 65.5031 14.8155C64.8963 14.6659 64.395 14.4385 63.9991 14.1332C63.6061 13.8285 63.3258 13.4698 63.1584 13.0569C62.9937 12.6447 62.952 12.2029 63.0331 11.7313L64.0923 11.9924C64.041 12.3192 64.0833 12.6105 64.2192 12.8663C64.3585 13.1201 64.5605 13.3337 64.8249 13.5072C65.0928 13.6786 65.3951 13.8057 65.7316 13.8887C66.1233 13.9852 66.4906 14.0084 66.8336 13.9584C67.1772 13.9056 67.4683 13.7871 67.7067 13.6031C67.9459 13.4162 68.1036 13.1683 68.1797 12.8594C68.2491 12.578 68.2269 12.3297 68.1132 12.1144C67.9994 11.8992 67.8279 11.7047 67.5986 11.5312C67.3693 11.3576 67.1158 11.1927 66.8383 11.0366L65.8691 10.4817C65.254 10.1282 64.7969 9.72729 64.4977 9.27904C64.1986 8.83079 64.1194 8.32117 64.2601 7.75019C64.3771 7.27575 64.6073 6.89361 64.9509 6.60377C65.2978 6.31185 65.7134 6.12168 66.1975 6.03326C66.685 5.94275 67.1991 5.96413 67.7397 6.09739C68.2859 6.232 68.7472 6.44958 69.1237 6.75012C69.5009 7.04791 69.7722 7.39566 69.9375 7.79337C70.1056 8.19175 70.1438 8.60642 70.0522 9.03737L69.0592 8.79261Z" fill="black"/>
<path d="M75.7533 9.90535L76.189 9.07524L81.9847 12.1171L81.549 12.9472L79.119 11.6718L75.4989 18.5693L74.5632 18.0782L78.1833 11.1807L75.7533 9.90535Z" fill="black"/>
<path d="M81.2781 22.2953L87.0654 15.7628L89.2726 17.7183C89.783 18.1704 90.1247 18.6287 90.2977 19.0932C90.4725 19.5555 90.5049 20.0074 90.3948 20.4488C90.2846 20.8901 90.059 21.3032 89.7181 21.6881C89.3771 22.073 88.996 22.3446 88.5749 22.5029C88.1538 22.6612 87.7053 22.6813 87.2292 22.5632C86.755 22.4429 86.2649 22.1586 85.7588 21.7103L83.9726 20.1278L84.6056 19.4133L86.3663 20.9732C86.715 21.2821 87.0409 21.4798 87.344 21.5661C87.6492 21.6543 87.9325 21.6472 88.194 21.5449C88.4595 21.4423 88.7081 21.2602 88.9398 20.9986C89.1715 20.7371 89.3251 20.4652 89.4006 20.1829C89.4761 19.9006 89.4536 19.6111 89.333 19.3145C89.2143 19.0158 88.9784 18.7101 88.6255 18.3974L87.2348 17.1653L82.0692 22.9961L81.2781 22.2953ZM86.9527 22.0848L85.9606 26.4435L85.042 25.6297L86.0596 21.2936L86.9527 22.0848Z" fill="black"/>
<path d="M88.4914 29.5131L95.6738 24.5555L98.6658 28.8902L97.8943 29.4227L95.5026 25.9578L93.0757 27.6329L95.3125 30.8734L94.5409 31.406L92.3042 28.1655L89.8633 29.8503L92.2937 33.3714L91.5221 33.9039L88.4914 29.5131Z" fill="black"/>
<path d="M93.7944 38.335L93.4016 37.2991L102.698 37.2006L103.085 38.2207L96.0611 44.3117L95.6682 43.2757L101.613 38.2321L101.588 38.1684L93.7944 38.335ZM97.1271 37.5087L98.7107 41.6844L97.8341 42.0168L96.2505 37.8411L97.1271 37.5087Z" fill="black"/>
<path d="M105.257 45.38L105.409 46.6322L98.5745 50.4497L98.5869 50.5512L106.136 52.6223L106.288 53.8744L97.6243 54.9264L97.5051 53.945L104.087 53.1457L104.077 53.0611L97.1661 51.153L97.051 50.2054L103.305 46.6988L103.294 46.6142L96.712 47.4134L96.5929 46.432L105.257 45.38Z" fill="black"/>
<path d="M98.9429 76.0836L99.3177 75.0954C99.624 75.1448 99.9125 75.1372 100.183 75.0727C100.453 75.0109 100.7 74.9041 100.924 74.7523C101.151 74.6042 101.348 74.4194 101.518 74.1979C101.687 73.9764 101.823 73.7302 101.925 73.4592C102.113 72.9652 102.158 72.4702 102.06 71.9744C101.961 71.4813 101.714 71.0244 101.317 70.6036C100.92 70.1855 100.368 69.8424 99.6614 69.5745C98.9548 69.3065 98.3142 69.1972 97.7394 69.2466C97.1636 69.2987 96.6754 69.4766 96.2746 69.7803C95.8728 70.0867 95.5782 70.487 95.3908 70.981C95.288 71.252 95.2265 71.5264 95.2062 71.8043C95.1859 72.0822 95.21 72.3511 95.2785 72.6111C95.3487 72.8747 95.4641 73.119 95.6249 73.344C95.7873 73.5727 95.9982 73.7697 96.2576 73.9349L95.8829 74.9231C95.494 74.6905 95.1722 74.4135 94.9174 74.092C94.6625 73.7705 94.475 73.4199 94.3547 73.0401C94.2371 72.6612 94.1875 72.2672 94.206 71.8579C94.2234 71.4514 94.3102 71.0422 94.4664 70.6305C94.7303 69.9345 95.1351 69.3801 95.6806 68.9671C96.2261 68.5542 96.8712 68.3112 97.616 68.2382C98.3607 68.1651 99.1634 68.2918 100.024 68.6182C100.885 68.9446 101.57 69.3821 102.079 69.9306C102.588 70.4791 102.909 71.0888 103.044 71.7597C103.178 72.4305 103.114 73.1139 102.85 73.8098C102.694 74.2215 102.487 74.5854 102.231 74.9013C101.973 75.2199 101.673 75.4814 101.331 75.686C100.992 75.8915 100.621 76.0301 100.217 76.1018C99.8154 76.1745 99.3908 76.1684 98.9429 76.0836Z" fill="black"/>
<path d="M91.8505 76.6944L99.0329 81.6521L98.4325 82.5218L95.2341 80.3141L92.5907 84.1438L95.7891 86.3515L95.1887 87.2212L88.0063 82.2636L88.6067 81.3938L91.8191 83.6112L94.4626 79.7816L91.2501 77.5642L91.8505 76.6944Z" fill="black"/>
<path d="M84.9967 85.4851L85.826 84.7503L89.2146 93.4078L88.3981 94.1312L80.2122 89.7238L81.0415 88.9891L87.8653 92.7587L87.9163 92.7134L84.9967 85.4851ZM86.9511 88.3081L83.6084 91.2695L82.9867 90.5678L86.3295 87.6063L86.9511 88.3081Z" fill="black"/>
<path d="M78.2172 100.935L74.1614 93.207L75.0972 92.7158L79.153 100.443L78.2172 100.935Z" fill="black"/>
<path d="M63.8368 105.816L61.7482 97.3426L62.7412 97.0978L68.9985 102.613L69.0813 102.593L67.4414 95.9393L68.4675 95.6864L70.5561 104.16L69.5631 104.405L63.2851 98.8773L63.2024 98.8977L64.8463 105.567L63.8368 105.816Z" fill="black"/>
</svg>
