<svg xmlns="http://www.w3.org/2000/svg" width="51" height="51" viewBox="0 0 51 51" fill="none">
<g clip-path="url(#clip0_124_3395)">
<path d="M25.5 51C39.5833 51 51 39.5833 51 25.5C51 11.4167 39.5833 0 25.5 0C11.4167 0 0 11.4167 0 25.5C0 39.5833 11.4167 51 25.5 51Z" fill="#EFB914"/>
<path fill-rule="evenodd" clip-rule="evenodd" d="M33.4722 15.7064C34.8068 16.7536 35.9175 18.0583 36.7383 19.543C37.5591 21.0277 38.0732 22.6621 38.2502 24.3493L33.7128 23.2209C33.2858 21.7951 32.4934 20.5056 31.4143 19.4804C30.3352 18.4553 29.0068 17.73 27.5609 17.3767C22.9933 16.2403 18.3809 18.9561 17.2573 23.4425C16.1338 27.9289 18.9308 32.487 23.5001 33.6233C24.9443 33.9879 26.4587 33.9695 27.8937 33.5698C29.3287 33.1701 30.6345 32.403 31.6824 31.3443L36.2198 32.4711C35.269 33.8785 34.0457 35.081 32.6223 36.0076C31.1988 36.9342 29.6041 37.5661 27.9323 37.8659L26.6413 43.0312L22.504 42.0033L23.5303 37.8994C22.828 37.7839 22.1362 37.6117 21.4617 37.3846L20.4369 41.4885L16.2995 40.4589L17.5904 35.2936C13.8005 32.3053 11.8928 27.3312 13.1216 22.4145C14.3503 17.4978 18.3762 13.9979 23.1303 13.1341L24.4213 7.96875L28.5586 8.99672L27.5323 13.1006C28.2346 13.2161 28.9264 13.3883 29.6009 13.6154L30.6257 9.5115L34.7631 10.5411L33.4722 15.7064Z" fill="white"/>
</g>
<defs>
<clipPath id="clip0_124_3395">
<rect width="51" height="51" fill="white"/>
</clipPath>
</defs>
</svg>