<svg xmlns="http://www.w3.org/2000/svg" width="49" height="49" viewBox="0 0 49 49" fill="none">
  <g clip-path="url(#clip0_124_3399)">
    <path d="M24.5 49C38.0311 49 49 38.0311 49 24.5C49 10.9689 38.0311 0 24.5 0C10.9689 0 0 10.9689 0 24.5C0 38.0311 10.9689 49 24.5 49Z" fill="#2B6DEF"/>
    <path fill-rule="evenodd" clip-rule="evenodd" d="M34.7094 12.25L29.6113 15.1895H29.6062V21.069L29.5883 21.0715L14.2922 12.25L9.19005 15.19L9.1875 15.189V33.468L14.2891 36.4096L14.2922 36.3861V36.408L19.3958 33.468V26.9551L24.4888 29.89L24.4918 29.8961L24.4959 29.8936L29.6072 26.9679V33.4706L34.6874 36.3983V36.4136L34.7002 36.406L34.7094 36.4111L34.7165 36.3968L39.79 33.4736V15.2053L39.813 15.192L34.7094 12.25Z" fill="white"/>
  </g>
  <defs>
    <clipPath id="clip0_124_3399">
      <rect width="49" height="49" fill="white"/>
    </clipPath>
  </defs>
</svg>