<svg width="18" height="18" viewBox="0 0 18 18" fill="none" xmlns="http://www.w3.org/2000/svg">
<path fill-rule="evenodd" clip-rule="evenodd" d="M17.5332 8.65993C17.5332 9.23702 17.4745 9.81331 17.3591 10.3751C17.2465 10.9235 17.0799 11.4619 16.8615 11.9766C16.6482 12.4822 16.3836 12.9694 16.0744 13.4237C15.7698 13.8752 15.419 14.2988 15.0335 14.6849C14.6473 15.0693 14.2222 15.4192 13.771 15.7251C13.3151 16.0322 12.8272 16.2964 12.3213 16.5107C11.8059 16.7279 11.2662 16.8943 10.7183 17.0066C10.1558 17.1223 9.57743 17.1814 8.9995 17.1814C8.42114 17.1814 7.84278 17.1223 7.28109 17.0066C6.73232 16.8943 6.19271 16.7279 5.67767 16.5107C5.17182 16.2964 4.68344 16.0322 4.2276 15.7251C3.77633 15.4193 3.35131 15.0693 2.96587 14.6849C2.58003 14.2988 2.22915 13.8752 1.92414 13.4237C1.61663 12.9694 1.35159 12.4821 1.13743 11.9766C0.91906 11.4619 0.751992 10.9234 0.639065 10.3751C0.524903 9.81331 0.466553 9.23702 0.466553 8.65993C0.466553 8.08241 0.52487 7.50488 0.639099 6.94436C0.752025 6.39595 0.919094 5.85672 1.13747 5.34286C1.35163 4.83691 1.61666 4.34927 1.92418 3.89488C2.22919 3.44302 2.58006 3.02025 2.9659 2.6337C3.35134 2.24922 3.77636 1.90015 4.22763 1.59475C4.68348 1.28641 5.17186 1.02223 5.67771 0.807505C6.19274 0.589849 6.73232 0.423021 7.28112 0.311525C7.84282 0.196694 8.42118 0.138428 8.99954 0.138428C9.57746 0.138428 10.1558 0.196694 10.7184 0.311525C11.2663 0.423055 11.8059 0.589882 12.3214 0.807505C12.8272 1.02219 13.3152 1.28641 13.771 1.59475C14.2223 1.90015 14.6473 2.24922 15.0336 2.6337C15.419 3.02025 15.7699 3.44302 16.0745 3.89488C16.3836 4.34927 16.6482 4.83694 16.8615 5.34286C17.0799 5.85672 17.2465 6.39595 17.3591 6.94436C17.4745 7.50488 17.5332 8.08241 17.5332 8.65993ZM5.89014 2.07781C3.85793 3.03608 2.34119 4.90597 1.86824 7.1595C2.06036 7.16117 5.09718 7.19946 8.5961 6.27114C7.3348 4.03341 5.98723 2.20725 5.89014 2.07781ZM9.19987 7.39171C5.44761 8.51344 1.84699 8.43273 1.71783 8.42776C1.71573 8.50597 1.71199 8.58168 1.71199 8.65992C1.71199 10.5294 2.41827 12.2337 3.57917 13.5223C3.57666 13.5186 5.57096 9.98557 9.50365 8.71569C9.59864 8.68407 9.69533 8.65575 9.79116 8.6283C9.60826 8.21474 9.40863 7.8003 9.19987 7.39171ZM13.8122 3.19835C12.5292 2.06864 10.8446 1.38339 8.99948 1.38339C8.40736 1.38339 7.83274 1.45496 7.2823 1.58727C7.39145 1.73375 8.7603 3.54704 10.0066 5.83216C12.7563 4.80278 13.7943 3.22496 13.8122 3.19835ZM10.2879 9.83412C10.2717 9.83949 10.2554 9.84413 10.2396 9.84993C5.93984 11.3467 4.53571 14.3632 4.52052 14.3961C5.75769 15.3568 7.30944 15.9365 8.99953 15.9365C10.0087 15.9365 10.97 15.7313 11.8446 15.3598C11.7367 14.724 11.3134 12.4954 10.2879 9.83412ZM13.0718 14.6949C14.7081 13.5922 15.8702 11.8414 16.1944 9.81328C16.0444 9.76502 14.0055 9.12049 11.6533 9.49707C12.6092 12.1201 12.9976 14.2563 13.0718 14.6949ZM10.5675 6.91651C10.7367 7.26353 10.9005 7.61673 11.0517 7.9717C11.1055 8.09904 11.158 8.22388 11.2092 8.34868C13.7127 8.0341 16.179 8.56337 16.2845 8.58498C16.2678 6.85991 15.6498 5.27668 14.6273 4.03718C14.6136 4.05669 13.4448 5.74311 10.5675 6.91651Z" fill="white"/>
</svg>
