<svg width="18" height="18" viewBox="0 0 18 18" fill="none" xmlns="http://www.w3.org/2000/svg">
<path fill-rule="evenodd" clip-rule="evenodd" d="M9.00069 0.138428C6.68315 0.138428 6.3923 0.148561 5.48207 0.189984C4.57362 0.231584 3.95352 0.375408 3.41094 0.586432C2.84969 0.80439 2.37359 1.09595 1.89928 1.57044C1.42461 2.04476 1.13305 2.52085 0.91438 3.08192C0.702822 3.62469 0.55882 4.24496 0.517931 5.15306C0.47722 6.06329 0.466553 6.35431 0.466553 8.67185C0.466553 10.9894 0.476864 11.2793 0.518109 12.1896C0.559887 13.098 0.703711 13.7181 0.914557 14.2607C1.13269 14.822 1.42425 15.2981 1.89875 15.7724C2.37288 16.247 2.84898 16.5393 3.40987 16.7573C3.95281 16.9683 4.57308 17.1121 5.48136 17.1537C6.39159 17.1951 6.68226 17.2053 8.99962 17.2053C11.3173 17.2053 11.6073 17.1951 12.5175 17.1537C13.426 17.1121 14.0468 16.9683 14.5897 16.7573C15.1508 16.5393 15.6262 16.247 16.1003 15.7724C16.575 15.2981 16.8665 14.822 17.0852 14.2609C17.295 13.7181 17.439 13.0979 17.4817 12.1898C17.5226 11.2795 17.5332 10.9894 17.5332 8.67185C17.5332 6.35431 17.5226 6.06347 17.4817 5.15323C17.439 4.24478 17.295 3.62469 17.0852 3.0821C16.8665 2.52085 16.575 2.04476 16.1003 1.57044C15.6256 1.09577 15.151 0.804212 14.5892 0.586432C14.0452 0.375408 13.4247 0.231584 12.5163 0.189984C11.606 0.148561 11.3163 0.138428 8.99802 0.138428H9.00069ZM8.23513 1.6762C8.46233 1.67584 8.71585 1.6762 9.00065 1.6762C11.2791 1.6762 11.5491 1.68438 12.4489 1.72526C13.2809 1.76331 13.7324 1.90233 14.0332 2.01913C14.4315 2.1738 14.7154 2.35869 15.0139 2.65736C15.3125 2.95603 15.4974 3.24048 15.6525 3.63871C15.7693 3.93915 15.9085 4.39071 15.9463 5.22272C15.9872 6.12229 15.9961 6.39251 15.9961 8.66987C15.9961 10.9472 15.9872 11.2175 15.9463 12.117C15.9083 12.949 15.7693 13.4006 15.6525 13.701C15.4978 14.0993 15.3125 14.3828 15.0139 14.6813C14.7152 14.98 14.4316 15.1649 14.0332 15.3195C13.7328 15.4369 13.2809 15.5755 12.4489 15.6136C11.5493 15.6545 11.2791 15.6634 9.00065 15.6634C6.72205 15.6634 6.452 15.6545 5.55244 15.6136C4.72043 15.5752 4.26887 15.4362 3.96789 15.3194C3.56966 15.1647 3.28521 14.9798 2.98654 14.6811C2.68787 14.3825 2.50298 14.0987 2.34796 13.7003C2.23116 13.3999 2.09196 12.9483 2.05409 12.1163C2.0132 11.2167 2.00502 10.9465 2.00502 8.66774C2.00502 6.38896 2.0132 6.12016 2.05409 5.22059C2.09213 4.38858 2.23116 3.93702 2.34796 3.63622C2.50263 3.23799 2.68787 2.95354 2.98654 2.65487C3.28521 2.3562 3.56966 2.17131 3.96789 2.01629C4.26869 1.89896 4.72043 1.76029 5.55244 1.72206C6.33964 1.68651 6.64471 1.67584 8.23513 1.67406V1.6762ZM13.5557 3.0931C12.9904 3.0931 12.5317 3.55124 12.5317 4.11676C12.5317 4.6821 12.9904 5.14077 13.5557 5.14077C14.1211 5.14077 14.5797 4.6821 14.5797 4.11676C14.5797 3.55142 14.1211 3.0931 13.5557 3.0931ZM9.0007 4.28956C6.58059 4.28956 4.61843 6.25171 4.61843 8.67183C4.61843 11.0919 6.58059 13.0532 9.0007 13.0532C11.4208 13.0532 13.3823 11.0919 13.3823 8.67183C13.3823 6.25171 11.4208 4.28956 9.0007 4.28956ZM9.00067 5.82735C10.5715 5.82735 11.8451 7.10079 11.8451 8.67183C11.8451 10.2427 10.5715 11.5163 9.00067 11.5163C7.42963 11.5163 6.15619 10.2427 6.15619 8.67183C6.15619 7.10079 7.42963 5.82735 9.00067 5.82735Z" fill="white"/>
</svg>
