<svg width="18" height="14" viewBox="0 0 18 14" fill="none" xmlns="http://www.w3.org/2000/svg">
<path fill-rule="evenodd" clip-rule="evenodd" d="M15.6679 1.1714C16.4022 1.3729 16.9805 1.96665 17.1768 2.72066C17.5335 4.0872 17.5335 6.93851 17.5335 6.93851C17.5335 6.93851 17.5335 9.78972 17.1768 11.1564C16.9805 11.9104 16.4022 12.5041 15.6679 12.7057C14.3371 13.0718 9.00013 13.0718 9.00013 13.0718C9.00013 13.0718 3.66321 13.0718 2.3323 12.7057C1.59795 12.5041 1.01962 11.9104 0.823354 11.1564C0.466797 9.78972 0.466797 6.93851 0.466797 6.93851C0.466797 6.93851 0.466797 4.0872 0.823354 2.72066C1.01962 1.96665 1.59795 1.3729 2.3323 1.1714C3.66321 0.805176 9.00013 0.805176 9.00013 0.805176C9.00013 0.805176 14.3371 0.805176 15.6679 1.1714ZM7.40015 4.53845V9.87179L11.6668 7.20522L7.40015 4.53845Z" fill="white"/>
</svg>
